<?xml version="1.0" encoding="utf-8" standalone="no"?>
<!DOCTYPE svg PUBLIC "-//W3C//DTD SVG 1.1//EN"
  "http://www.w3.org/Graphics/SVG/1.1/DTD/svg11.dtd">
<!-- Created with matplotlib (http://matplotlib.org/) -->
<svg height="1080pt" version="1.1" viewBox="0 0 1440 1080" width="1440pt" xmlns="http://www.w3.org/2000/svg" xmlns:xlink="http://www.w3.org/1999/xlink">
 <defs>
  <style type="text/css">
*{stroke-linecap:butt;stroke-linejoin:round;}
  </style>
 </defs>
 <g id="figure_1">
  <g id="patch_1">
   <path d="M 0 1080 
L 1440 1080 
L 1440 0 
L 0 0 
z
" style="fill:#ffffff;"/>
  </g>
  <g id="axes_1">
   <g id="patch_2">
    <path d="M 137.1625 987.842411 
L 1185.975612 987.842411 
L 1185.975612 192.355026 
L 137.1625 192.355026 
z
" style="fill:#eaeaf2;"/>
   </g>
   <g id="matplotlib.axis_1">
    <g id="xtick_1">
     <g id="line2d_1">
      <path clip-path="url(#p0d8ab68773)" d="M 299.638424 987.842411 
L 299.638424 192.355026 
" style="fill:none;stroke:#ffffff;stroke-linecap:round;"/>
     </g>
     <g id="line2d_2"/>
     <g id="text_1">
      <!-- 15 -->
      <defs>
       <path d="M 37.25 0 
L 28.46875 0 
L 28.46875 56 
Q 25.296875 52.984375 20.140625 49.953125 
Q 14.984375 46.921875 10.890625 45.40625 
L 10.890625 53.90625 
Q 18.265625 57.375 23.78125 62.296875 
Q 29.296875 67.234375 31.59375 71.875 
L 37.25 71.875 
z
" id="ArialMT-31"/>
       <path d="M 4.15625 18.75 
L 13.375 19.53125 
Q 14.40625 12.796875 18.140625 9.390625 
Q 21.875 6 27.15625 6 
Q 33.5 6 37.890625 10.78125 
Q 42.28125 15.578125 42.28125 23.484375 
Q 42.28125 31 38.0625 35.34375 
Q 33.84375 39.703125 27 39.703125 
Q 22.75 39.703125 19.328125 37.765625 
Q 15.921875 35.84375 13.96875 32.765625 
L 5.71875 33.84375 
L 12.640625 70.609375 
L 48.25 70.609375 
L 48.25 62.203125 
L 19.671875 62.203125 
L 15.828125 42.96875 
Q 22.265625 47.46875 29.34375 47.46875 
Q 38.71875 47.46875 45.15625 40.96875 
Q 51.609375 34.46875 51.609375 24.265625 
Q 51.609375 14.546875 45.953125 7.46875 
Q 39.0625 -1.21875 27.15625 -1.21875 
Q 17.390625 -1.21875 11.203125 4.25 
Q 5.03125 9.71875 4.15625 18.75 
" id="ArialMT-35"/>
      </defs>
      <g style="fill:#262626;" transform="translate(294.077487 1002.000223)scale(0.1 -0.1)">
       <use xlink:href="#ArialMT-31"/>
       <use x="55.615234" xlink:href="#ArialMT-35"/>
      </g>
     </g>
    </g>
    <g id="xtick_2">
     <g id="line2d_3">
      <path clip-path="url(#p0d8ab68773)" d="M 475.376815 987.842411 
L 475.376815 192.355026 
" style="fill:none;stroke:#ffffff;stroke-linecap:round;"/>
     </g>
     <g id="line2d_4"/>
     <g id="text_2">
      <!-- 20 -->
      <defs>
       <path d="M 50.34375 8.453125 
L 50.34375 0 
L 3.03125 0 
Q 2.9375 3.171875 4.046875 6.109375 
Q 5.859375 10.9375 9.828125 15.625 
Q 13.8125 20.3125 21.34375 26.46875 
Q 33.015625 36.03125 37.109375 41.625 
Q 41.21875 47.21875 41.21875 52.203125 
Q 41.21875 57.421875 37.46875 61 
Q 33.734375 64.59375 27.734375 64.59375 
Q 21.390625 64.59375 17.578125 60.78125 
Q 13.765625 56.984375 13.71875 50.25 
L 4.6875 51.171875 
Q 5.609375 61.28125 11.65625 66.578125 
Q 17.71875 71.875 27.9375 71.875 
Q 38.234375 71.875 44.234375 66.15625 
Q 50.25 60.453125 50.25 52 
Q 50.25 47.703125 48.484375 43.546875 
Q 46.734375 39.40625 42.65625 34.8125 
Q 38.578125 30.21875 29.109375 22.21875 
Q 21.1875 15.578125 18.9375 13.203125 
Q 16.703125 10.84375 15.234375 8.453125 
z
" id="ArialMT-32"/>
       <path d="M 4.15625 35.296875 
Q 4.15625 48 6.765625 55.734375 
Q 9.375 63.484375 14.515625 67.671875 
Q 19.671875 71.875 27.484375 71.875 
Q 33.25 71.875 37.59375 69.546875 
Q 41.9375 67.234375 44.765625 62.859375 
Q 47.609375 58.5 49.21875 52.21875 
Q 50.828125 45.953125 50.828125 35.296875 
Q 50.828125 22.703125 48.234375 14.96875 
Q 45.65625 7.234375 40.5 3 
Q 35.359375 -1.21875 27.484375 -1.21875 
Q 17.140625 -1.21875 11.234375 6.203125 
Q 4.15625 15.140625 4.15625 35.296875 
M 13.1875 35.296875 
Q 13.1875 17.671875 17.3125 11.828125 
Q 21.4375 6 27.484375 6 
Q 33.546875 6 37.671875 11.859375 
Q 41.796875 17.71875 41.796875 35.296875 
Q 41.796875 52.984375 37.671875 58.78125 
Q 33.546875 64.59375 27.390625 64.59375 
Q 21.34375 64.59375 17.71875 59.46875 
Q 13.1875 52.9375 13.1875 35.296875 
" id="ArialMT-30"/>
      </defs>
      <g style="fill:#262626;" transform="translate(469.815877 1002.000223)scale(0.1 -0.1)">
       <use xlink:href="#ArialMT-32"/>
       <use x="55.615234" xlink:href="#ArialMT-30"/>
      </g>
     </g>
    </g>
    <g id="xtick_3">
     <g id="line2d_5">
      <path clip-path="url(#p0d8ab68773)" d="M 651.115205 987.842411 
L 651.115205 192.355026 
" style="fill:none;stroke:#ffffff;stroke-linecap:round;"/>
     </g>
     <g id="line2d_6"/>
     <g id="text_3">
      <!-- 25 -->
      <g style="fill:#262626;" transform="translate(645.554268 1002.000223)scale(0.1 -0.1)">
       <use xlink:href="#ArialMT-32"/>
       <use x="55.615234" xlink:href="#ArialMT-35"/>
      </g>
     </g>
    </g>
    <g id="xtick_4">
     <g id="line2d_7">
      <path clip-path="url(#p0d8ab68773)" d="M 826.853596 987.842411 
L 826.853596 192.355026 
" style="fill:none;stroke:#ffffff;stroke-linecap:round;"/>
     </g>
     <g id="line2d_8"/>
     <g id="text_4">
      <!-- 30 -->
      <defs>
       <path d="M 4.203125 18.890625 
L 12.984375 20.0625 
Q 14.5 12.59375 18.140625 9.296875 
Q 21.78125 6 27 6 
Q 33.203125 6 37.46875 10.296875 
Q 41.75 14.59375 41.75 20.953125 
Q 41.75 27 37.796875 30.921875 
Q 33.84375 34.859375 27.734375 34.859375 
Q 25.25 34.859375 21.53125 33.890625 
L 22.515625 41.609375 
Q 23.390625 41.5 23.921875 41.5 
Q 29.546875 41.5 34.03125 44.421875 
Q 38.53125 47.359375 38.53125 53.46875 
Q 38.53125 58.296875 35.25 61.46875 
Q 31.984375 64.65625 26.8125 64.65625 
Q 21.6875 64.65625 18.265625 61.421875 
Q 14.84375 58.203125 13.875 51.765625 
L 5.078125 53.328125 
Q 6.6875 62.15625 12.390625 67.015625 
Q 18.109375 71.875 26.609375 71.875 
Q 32.46875 71.875 37.390625 69.359375 
Q 42.328125 66.84375 44.9375 62.5 
Q 47.5625 58.15625 47.5625 53.265625 
Q 47.5625 48.640625 45.0625 44.828125 
Q 42.578125 41.015625 37.703125 38.765625 
Q 44.046875 37.3125 47.5625 32.6875 
Q 51.078125 28.078125 51.078125 21.140625 
Q 51.078125 11.765625 44.234375 5.25 
Q 37.40625 -1.265625 26.953125 -1.265625 
Q 17.53125 -1.265625 11.296875 4.34375 
Q 5.078125 9.96875 4.203125 18.890625 
" id="ArialMT-33"/>
      </defs>
      <g style="fill:#262626;" transform="translate(821.292658 1002.000223)scale(0.1 -0.1)">
       <use xlink:href="#ArialMT-33"/>
       <use x="55.615234" xlink:href="#ArialMT-30"/>
      </g>
     </g>
    </g>
    <g id="xtick_5">
     <g id="line2d_9">
      <path clip-path="url(#p0d8ab68773)" d="M 1002.591986 987.842411 
L 1002.591986 192.355026 
" style="fill:none;stroke:#ffffff;stroke-linecap:round;"/>
     </g>
     <g id="line2d_10"/>
     <g id="text_5">
      <!-- 35 -->
      <g style="fill:#262626;" transform="translate(997.031049 1002.000223)scale(0.1 -0.1)">
       <use xlink:href="#ArialMT-33"/>
       <use x="55.615234" xlink:href="#ArialMT-35"/>
      </g>
     </g>
    </g>
    <g id="xtick_6">
     <g id="line2d_11">
      <path clip-path="url(#p0d8ab68773)" d="M 1178.330377 987.842411 
L 1178.330377 192.355026 
" style="fill:none;stroke:#ffffff;stroke-linecap:round;"/>
     </g>
     <g id="line2d_12"/>
     <g id="text_6">
      <!-- 40 -->
      <defs>
       <path d="M 32.328125 0 
L 32.328125 17.140625 
L 1.265625 17.140625 
L 1.265625 25.203125 
L 33.9375 71.578125 
L 41.109375 71.578125 
L 41.109375 25.203125 
L 50.78125 25.203125 
L 50.78125 17.140625 
L 41.109375 17.140625 
L 41.109375 0 
z
M 32.328125 25.203125 
L 32.328125 57.46875 
L 9.90625 25.203125 
z
" id="ArialMT-34"/>
      </defs>
      <g style="fill:#262626;" transform="translate(1172.769439 1002.000223)scale(0.1 -0.1)">
       <use xlink:href="#ArialMT-34"/>
       <use x="55.615234" xlink:href="#ArialMT-30"/>
      </g>
     </g>
    </g>
    <g id="text_7">
     <!-- 30-34 anni che hanno conseguito un titolo universitario -->
     <defs>
      <path d="M 3.171875 21.484375 
L 3.171875 30.328125 
L 30.171875 30.328125 
L 30.171875 21.484375 
z
" id="ArialMT-2d"/>
      <path id="ArialMT-20"/>
      <path d="M 40.4375 6.390625 
Q 35.546875 2.25 31.03125 0.53125 
Q 26.515625 -1.171875 21.34375 -1.171875 
Q 12.796875 -1.171875 8.203125 3 
Q 3.609375 7.171875 3.609375 13.671875 
Q 3.609375 17.484375 5.34375 20.625 
Q 7.078125 23.78125 9.890625 25.6875 
Q 12.703125 27.59375 16.21875 28.5625 
Q 18.796875 29.25 24.03125 29.890625 
Q 34.671875 31.15625 39.703125 32.90625 
Q 39.75 34.71875 39.75 35.203125 
Q 39.75 40.578125 37.25 42.78125 
Q 33.890625 45.75 27.25 45.75 
Q 21.046875 45.75 18.09375 43.578125 
Q 15.140625 41.40625 13.71875 35.890625 
L 5.125 37.0625 
Q 6.296875 42.578125 8.984375 45.96875 
Q 11.671875 49.359375 16.75 51.1875 
Q 21.828125 53.03125 28.515625 53.03125 
Q 35.15625 53.03125 39.296875 51.46875 
Q 43.453125 49.90625 45.40625 47.53125 
Q 47.359375 45.171875 48.140625 41.546875 
Q 48.578125 39.3125 48.578125 33.453125 
L 48.578125 21.734375 
Q 48.578125 9.46875 49.140625 6.21875 
Q 49.703125 2.984375 51.375 0 
L 42.1875 0 
Q 40.828125 2.734375 40.4375 6.390625 
M 39.703125 26.03125 
Q 34.90625 24.078125 25.34375 22.703125 
Q 19.921875 21.921875 17.671875 20.9375 
Q 15.4375 19.96875 14.203125 18.09375 
Q 12.984375 16.21875 12.984375 13.921875 
Q 12.984375 10.40625 15.640625 8.0625 
Q 18.3125 5.71875 23.4375 5.71875 
Q 28.515625 5.71875 32.46875 7.9375 
Q 36.421875 10.15625 38.28125 14.015625 
Q 39.703125 17 39.703125 22.796875 
z
" id="ArialMT-61"/>
      <path d="M 6.59375 0 
L 6.59375 51.859375 
L 14.5 51.859375 
L 14.5 44.484375 
Q 20.21875 53.03125 31 53.03125 
Q 35.6875 53.03125 39.625 51.34375 
Q 43.5625 49.65625 45.515625 46.921875 
Q 47.46875 44.1875 48.25 40.4375 
Q 48.734375 37.984375 48.734375 31.890625 
L 48.734375 0 
L 39.9375 0 
L 39.9375 31.546875 
Q 39.9375 36.921875 38.90625 39.578125 
Q 37.890625 42.234375 35.28125 43.8125 
Q 32.671875 45.40625 29.15625 45.40625 
Q 23.53125 45.40625 19.453125 41.84375 
Q 15.375 38.28125 15.375 28.328125 
L 15.375 0 
z
" id="ArialMT-6e"/>
      <path d="M 6.640625 61.46875 
L 6.640625 71.578125 
L 15.4375 71.578125 
L 15.4375 61.46875 
z
M 6.640625 0 
L 6.640625 51.859375 
L 15.4375 51.859375 
L 15.4375 0 
z
" id="ArialMT-69"/>
      <path d="M 40.4375 19 
L 49.078125 17.875 
Q 47.65625 8.9375 41.8125 3.875 
Q 35.984375 -1.171875 27.484375 -1.171875 
Q 16.84375 -1.171875 10.375 5.78125 
Q 3.90625 12.75 3.90625 25.734375 
Q 3.90625 34.125 6.6875 40.421875 
Q 9.46875 46.734375 15.15625 49.875 
Q 20.84375 53.03125 27.546875 53.03125 
Q 35.984375 53.03125 41.359375 48.75 
Q 46.734375 44.484375 48.25 36.625 
L 39.703125 35.296875 
Q 38.484375 40.53125 35.375 43.15625 
Q 32.28125 45.796875 27.875 45.796875 
Q 21.234375 45.796875 17.078125 41.03125 
Q 12.9375 36.28125 12.9375 25.984375 
Q 12.9375 15.53125 16.9375 10.796875 
Q 20.953125 6.0625 27.390625 6.0625 
Q 32.5625 6.0625 36.03125 9.234375 
Q 39.5 12.40625 40.4375 19 
" id="ArialMT-63"/>
      <path d="M 6.59375 0 
L 6.59375 71.578125 
L 15.375 71.578125 
L 15.375 45.90625 
Q 21.53125 53.03125 30.90625 53.03125 
Q 36.671875 53.03125 40.921875 50.75 
Q 45.171875 48.484375 47 44.484375 
Q 48.828125 40.484375 48.828125 32.859375 
L 48.828125 0 
L 40.046875 0 
L 40.046875 32.859375 
Q 40.046875 39.453125 37.1875 42.453125 
Q 34.328125 45.453125 29.109375 45.453125 
Q 25.203125 45.453125 21.75 43.421875 
Q 18.3125 41.40625 16.84375 37.9375 
Q 15.375 34.46875 15.375 28.375 
L 15.375 0 
z
" id="ArialMT-68"/>
      <path d="M 42.09375 16.703125 
L 51.171875 15.578125 
Q 49.03125 7.625 43.21875 3.21875 
Q 37.40625 -1.171875 28.375 -1.171875 
Q 17 -1.171875 10.328125 5.828125 
Q 3.65625 12.84375 3.65625 25.484375 
Q 3.65625 38.578125 10.390625 45.796875 
Q 17.140625 53.03125 27.875 53.03125 
Q 38.28125 53.03125 44.875 45.953125 
Q 51.46875 38.875 51.46875 26.03125 
Q 51.46875 25.25 51.421875 23.6875 
L 12.75 23.6875 
Q 13.234375 15.140625 17.578125 10.59375 
Q 21.921875 6.0625 28.421875 6.0625 
Q 33.25 6.0625 36.671875 8.59375 
Q 40.09375 11.140625 42.09375 16.703125 
M 13.234375 30.90625 
L 42.1875 30.90625 
Q 41.609375 37.453125 38.875 40.71875 
Q 34.671875 45.796875 27.984375 45.796875 
Q 21.921875 45.796875 17.796875 41.75 
Q 13.671875 37.703125 13.234375 30.90625 
" id="ArialMT-65"/>
      <path d="M 3.328125 25.921875 
Q 3.328125 40.328125 11.328125 47.265625 
Q 18.015625 53.03125 27.640625 53.03125 
Q 38.328125 53.03125 45.109375 46.015625 
Q 51.90625 39.015625 51.90625 26.65625 
Q 51.90625 16.65625 48.90625 10.90625 
Q 45.90625 5.171875 40.15625 2 
Q 34.421875 -1.171875 27.640625 -1.171875 
Q 16.75 -1.171875 10.03125 5.8125 
Q 3.328125 12.796875 3.328125 25.921875 
M 12.359375 25.921875 
Q 12.359375 15.96875 16.703125 11.015625 
Q 21.046875 6.0625 27.640625 6.0625 
Q 34.1875 6.0625 38.53125 11.03125 
Q 42.875 16.015625 42.875 26.21875 
Q 42.875 35.84375 38.5 40.796875 
Q 34.125 45.75 27.640625 45.75 
Q 21.046875 45.75 16.703125 40.8125 
Q 12.359375 35.890625 12.359375 25.921875 
" id="ArialMT-6f"/>
      <path d="M 3.078125 15.484375 
L 11.765625 16.84375 
Q 12.5 11.625 15.84375 8.84375 
Q 19.1875 6.0625 25.203125 6.0625 
Q 31.25 6.0625 34.171875 8.515625 
Q 37.109375 10.984375 37.109375 14.3125 
Q 37.109375 17.28125 34.515625 19 
Q 32.71875 20.171875 25.53125 21.96875 
Q 15.875 24.421875 12.140625 26.203125 
Q 8.40625 27.984375 6.46875 31.125 
Q 4.546875 34.28125 4.546875 38.09375 
Q 4.546875 41.546875 6.125 44.5 
Q 7.71875 47.46875 10.453125 49.421875 
Q 12.5 50.921875 16.03125 51.96875 
Q 19.578125 53.03125 23.640625 53.03125 
Q 29.734375 53.03125 34.34375 51.265625 
Q 38.96875 49.515625 41.15625 46.5 
Q 43.359375 43.5 44.1875 38.484375 
L 35.59375 37.3125 
Q 35.015625 41.3125 32.203125 43.546875 
Q 29.390625 45.796875 24.265625 45.796875 
Q 18.21875 45.796875 15.625 43.796875 
Q 13.03125 41.796875 13.03125 39.109375 
Q 13.03125 37.40625 14.109375 36.03125 
Q 15.1875 34.625 17.484375 33.6875 
Q 18.796875 33.203125 25.25 31.453125 
Q 34.578125 28.953125 38.25 27.359375 
Q 41.9375 25.78125 44.03125 22.75 
Q 46.140625 19.734375 46.140625 15.234375 
Q 46.140625 10.84375 43.578125 6.953125 
Q 41.015625 3.078125 36.171875 0.953125 
Q 31.34375 -1.171875 25.25 -1.171875 
Q 15.140625 -1.171875 9.84375 3.03125 
Q 4.546875 7.234375 3.078125 15.484375 
" id="ArialMT-73"/>
      <path d="M 4.984375 -4.296875 
L 13.53125 -5.5625 
Q 14.0625 -9.515625 16.5 -11.328125 
Q 19.78125 -13.765625 25.4375 -13.765625 
Q 31.546875 -13.765625 34.859375 -11.328125 
Q 38.1875 -8.890625 39.359375 -4.5 
Q 40.046875 -1.8125 39.984375 6.78125 
Q 34.234375 0 25.640625 0 
Q 14.9375 0 9.078125 7.71875 
Q 3.21875 15.4375 3.21875 26.21875 
Q 3.21875 33.640625 5.90625 39.90625 
Q 8.59375 46.1875 13.6875 49.609375 
Q 18.796875 53.03125 25.6875 53.03125 
Q 34.859375 53.03125 40.828125 45.609375 
L 40.828125 51.859375 
L 48.921875 51.859375 
L 48.921875 7.03125 
Q 48.921875 -5.078125 46.453125 -10.125 
Q 44 -15.1875 38.640625 -18.109375 
Q 33.296875 -21.046875 25.484375 -21.046875 
Q 16.21875 -21.046875 10.5 -16.875 
Q 4.78125 -12.703125 4.984375 -4.296875 
M 12.25 26.859375 
Q 12.25 16.65625 16.296875 11.96875 
Q 20.359375 7.28125 26.46875 7.28125 
Q 32.515625 7.28125 36.609375 11.9375 
Q 40.71875 16.609375 40.71875 26.5625 
Q 40.71875 36.078125 36.5 40.90625 
Q 32.28125 45.75 26.3125 45.75 
Q 20.453125 45.75 16.34375 40.984375 
Q 12.25 36.234375 12.25 26.859375 
" id="ArialMT-67"/>
      <path d="M 40.578125 0 
L 40.578125 7.625 
Q 34.515625 -1.171875 24.125 -1.171875 
Q 19.53125 -1.171875 15.546875 0.578125 
Q 11.578125 2.34375 9.640625 5 
Q 7.71875 7.671875 6.9375 11.53125 
Q 6.390625 14.109375 6.390625 19.734375 
L 6.390625 51.859375 
L 15.1875 51.859375 
L 15.1875 23.09375 
Q 15.1875 16.21875 15.71875 13.8125 
Q 16.546875 10.359375 19.234375 8.375 
Q 21.921875 6.390625 25.875 6.390625 
Q 29.828125 6.390625 33.296875 8.421875 
Q 36.765625 10.453125 38.203125 13.9375 
Q 39.65625 17.4375 39.65625 24.078125 
L 39.65625 51.859375 
L 48.4375 51.859375 
L 48.4375 0 
z
" id="ArialMT-75"/>
      <path d="M 25.78125 7.859375 
L 27.046875 0.09375 
Q 23.34375 -0.6875 20.40625 -0.6875 
Q 15.625 -0.6875 12.984375 0.828125 
Q 10.359375 2.34375 9.28125 4.8125 
Q 8.203125 7.28125 8.203125 15.1875 
L 8.203125 45.015625 
L 1.765625 45.015625 
L 1.765625 51.859375 
L 8.203125 51.859375 
L 8.203125 64.703125 
L 16.9375 69.96875 
L 16.9375 51.859375 
L 25.78125 51.859375 
L 25.78125 45.015625 
L 16.9375 45.015625 
L 16.9375 14.703125 
Q 16.9375 10.9375 17.40625 9.859375 
Q 17.875 8.796875 18.921875 8.15625 
Q 19.96875 7.515625 21.921875 7.515625 
Q 23.390625 7.515625 25.78125 7.859375 
" id="ArialMT-74"/>
      <path d="M 6.390625 0 
L 6.390625 71.578125 
L 15.1875 71.578125 
L 15.1875 0 
z
" id="ArialMT-6c"/>
      <path d="M 21 0 
L 1.265625 51.859375 
L 10.546875 51.859375 
L 21.6875 20.796875 
Q 23.484375 15.765625 25 10.359375 
Q 26.171875 14.453125 28.265625 20.21875 
L 39.796875 51.859375 
L 48.828125 51.859375 
L 29.203125 0 
z
" id="ArialMT-76"/>
      <path d="M 6.5 0 
L 6.5 51.859375 
L 14.40625 51.859375 
L 14.40625 44 
Q 17.4375 49.515625 20 51.265625 
Q 22.5625 53.03125 25.640625 53.03125 
Q 30.078125 53.03125 34.671875 50.203125 
L 31.640625 42.046875 
Q 28.421875 43.953125 25.203125 43.953125 
Q 22.3125 43.953125 20.015625 42.21875 
Q 17.71875 40.484375 16.75 37.40625 
Q 15.28125 32.71875 15.28125 27.15625 
L 15.28125 0 
z
" id="ArialMT-72"/>
     </defs>
     <g style="fill:#262626;" transform="translate(528.266244 1015.893973)scale(0.11 -0.11)">
      <use xlink:href="#ArialMT-33"/>
      <use x="55.615234" xlink:href="#ArialMT-30"/>
      <use x="111.230469" xlink:href="#ArialMT-2d"/>
      <use x="144.53125" xlink:href="#ArialMT-33"/>
      <use x="200.146484" xlink:href="#ArialMT-34"/>
      <use x="255.761719" xlink:href="#ArialMT-20"/>
      <use x="283.544922" xlink:href="#ArialMT-61"/>
      <use x="339.160156" xlink:href="#ArialMT-6e"/>
      <use x="394.775391" xlink:href="#ArialMT-6e"/>
      <use x="450.390625" xlink:href="#ArialMT-69"/>
      <use x="472.607422" xlink:href="#ArialMT-20"/>
      <use x="500.390625" xlink:href="#ArialMT-63"/>
      <use x="550.390625" xlink:href="#ArialMT-68"/>
      <use x="606.005859" xlink:href="#ArialMT-65"/>
      <use x="661.621094" xlink:href="#ArialMT-20"/>
      <use x="689.404297" xlink:href="#ArialMT-68"/>
      <use x="745.019531" xlink:href="#ArialMT-61"/>
      <use x="800.634766" xlink:href="#ArialMT-6e"/>
      <use x="856.25" xlink:href="#ArialMT-6e"/>
      <use x="911.865234" xlink:href="#ArialMT-6f"/>
      <use x="967.480469" xlink:href="#ArialMT-20"/>
      <use x="995.263672" xlink:href="#ArialMT-63"/>
      <use x="1045.263672" xlink:href="#ArialMT-6f"/>
      <use x="1100.878906" xlink:href="#ArialMT-6e"/>
      <use x="1156.494141" xlink:href="#ArialMT-73"/>
      <use x="1206.494141" xlink:href="#ArialMT-65"/>
      <use x="1262.109375" xlink:href="#ArialMT-67"/>
      <use x="1317.724609" xlink:href="#ArialMT-75"/>
      <use x="1373.339844" xlink:href="#ArialMT-69"/>
      <use x="1395.556641" xlink:href="#ArialMT-74"/>
      <use x="1423.339844" xlink:href="#ArialMT-6f"/>
      <use x="1478.955078" xlink:href="#ArialMT-20"/>
      <use x="1506.738281" xlink:href="#ArialMT-75"/>
      <use x="1562.353516" xlink:href="#ArialMT-6e"/>
      <use x="1617.96875" xlink:href="#ArialMT-20"/>
      <use x="1645.751953" xlink:href="#ArialMT-74"/>
      <use x="1673.535156" xlink:href="#ArialMT-69"/>
      <use x="1695.751953" xlink:href="#ArialMT-74"/>
      <use x="1723.535156" xlink:href="#ArialMT-6f"/>
      <use x="1779.150391" xlink:href="#ArialMT-6c"/>
      <use x="1801.367188" xlink:href="#ArialMT-6f"/>
      <use x="1856.982422" xlink:href="#ArialMT-20"/>
      <use x="1884.765625" xlink:href="#ArialMT-75"/>
      <use x="1940.380859" xlink:href="#ArialMT-6e"/>
      <use x="1995.996094" xlink:href="#ArialMT-69"/>
      <use x="2018.212891" xlink:href="#ArialMT-76"/>
      <use x="2068.212891" xlink:href="#ArialMT-65"/>
      <use x="2123.828125" xlink:href="#ArialMT-72"/>
      <use x="2157.128906" xlink:href="#ArialMT-73"/>
      <use x="2207.128906" xlink:href="#ArialMT-69"/>
      <use x="2229.345703" xlink:href="#ArialMT-74"/>
      <use x="2257.128906" xlink:href="#ArialMT-61"/>
      <use x="2312.744141" xlink:href="#ArialMT-72"/>
      <use x="2346.044922" xlink:href="#ArialMT-69"/>
      <use x="2368.261719" xlink:href="#ArialMT-6f"/>
     </g>
    </g>
   </g>
   <g id="matplotlib.axis_2">
    <g id="ytick_1">
     <g id="line2d_13">
      <path clip-path="url(#p0d8ab68773)" d="M 137.1625 893.076729 
L 1185.975612 893.076729 
" style="fill:none;stroke:#ffffff;stroke-linecap:round;"/>
     </g>
     <g id="line2d_14"/>
     <g id="text_8">
      <!-- 0 -->
      <g style="fill:#262626;" transform="translate(124.601563 896.655635)scale(0.1 -0.1)">
       <use xlink:href="#ArialMT-30"/>
      </g>
     </g>
    </g>
    <g id="ytick_2">
     <g id="line2d_15">
      <path clip-path="url(#p0d8ab68773)" d="M 137.1625 776.87844 
L 1185.975612 776.87844 
" style="fill:none;stroke:#ffffff;stroke-linecap:round;"/>
     </g>
     <g id="line2d_16"/>
     <g id="text_9">
      <!-- 5 -->
      <g style="fill:#262626;" transform="translate(124.601563 780.457346)scale(0.1 -0.1)">
       <use xlink:href="#ArialMT-35"/>
      </g>
     </g>
    </g>
    <g id="ytick_3">
     <g id="line2d_17">
      <path clip-path="url(#p0d8ab68773)" d="M 137.1625 660.68015 
L 1185.975612 660.68015 
" style="fill:none;stroke:#ffffff;stroke-linecap:round;"/>
     </g>
     <g id="line2d_18"/>
     <g id="text_10">
      <!-- 10 -->
      <g style="fill:#262626;" transform="translate(119.040625 664.259056)scale(0.1 -0.1)">
       <use xlink:href="#ArialMT-31"/>
       <use x="55.615234" xlink:href="#ArialMT-30"/>
      </g>
     </g>
    </g>
    <g id="ytick_4">
     <g id="line2d_19">
      <path clip-path="url(#p0d8ab68773)" d="M 137.1625 544.48186 
L 1185.975612 544.48186 
" style="fill:none;stroke:#ffffff;stroke-linecap:round;"/>
     </g>
     <g id="line2d_20"/>
     <g id="text_11">
      <!-- 15 -->
      <g style="fill:#262626;" transform="translate(119.040625 548.060767)scale(0.1 -0.1)">
       <use xlink:href="#ArialMT-31"/>
       <use x="55.615234" xlink:href="#ArialMT-35"/>
      </g>
     </g>
    </g>
    <g id="ytick_5">
     <g id="line2d_21">
      <path clip-path="url(#p0d8ab68773)" d="M 137.1625 428.283571 
L 1185.975612 428.283571 
" style="fill:none;stroke:#ffffff;stroke-linecap:round;"/>
     </g>
     <g id="line2d_22"/>
     <g id="text_12">
      <!-- 20 -->
      <g style="fill:#262626;" transform="translate(119.040625 431.862477)scale(0.1 -0.1)">
       <use xlink:href="#ArialMT-32"/>
       <use x="55.615234" xlink:href="#ArialMT-30"/>
      </g>
     </g>
    </g>
    <g id="ytick_6">
     <g id="line2d_23">
      <path clip-path="url(#p0d8ab68773)" d="M 137.1625 312.085281 
L 1185.975612 312.085281 
" style="fill:none;stroke:#ffffff;stroke-linecap:round;"/>
     </g>
     <g id="line2d_24"/>
     <g id="text_13">
      <!-- 25 -->
      <g style="fill:#262626;" transform="translate(119.040625 315.664187)scale(0.1 -0.1)">
       <use xlink:href="#ArialMT-32"/>
       <use x="55.615234" xlink:href="#ArialMT-35"/>
      </g>
     </g>
    </g>
    <g id="ytick_7">
     <g id="line2d_25">
      <path clip-path="url(#p0d8ab68773)" d="M 137.1625 195.886992 
L 1185.975612 195.886992 
" style="fill:none;stroke:#ffffff;stroke-linecap:round;"/>
     </g>
     <g id="line2d_26"/>
     <g id="text_14">
      <!-- 30 -->
      <g style="fill:#262626;" transform="translate(119.040625 199.465898)scale(0.1 -0.1)">
       <use xlink:href="#ArialMT-33"/>
       <use x="55.615234" xlink:href="#ArialMT-30"/>
      </g>
     </g>
    </g>
    <g id="text_15">
     <!-- Incidenza di lavoratori dipendenti con bassa paga - 2015 -->
     <defs>
      <path d="M 9.328125 0 
L 9.328125 71.578125 
L 18.796875 71.578125 
L 18.796875 0 
z
" id="ArialMT-49"/>
      <path d="M 40.234375 0 
L 40.234375 6.546875 
Q 35.296875 -1.171875 25.734375 -1.171875 
Q 19.53125 -1.171875 14.328125 2.25 
Q 9.125 5.671875 6.265625 11.796875 
Q 3.421875 17.921875 3.421875 25.875 
Q 3.421875 33.640625 6 39.96875 
Q 8.59375 46.296875 13.765625 49.65625 
Q 18.953125 53.03125 25.34375 53.03125 
Q 30.03125 53.03125 33.6875 51.046875 
Q 37.359375 49.078125 39.65625 45.90625 
L 39.65625 71.578125 
L 48.390625 71.578125 
L 48.390625 0 
z
M 12.453125 25.875 
Q 12.453125 15.921875 16.640625 10.984375 
Q 20.84375 6.0625 26.5625 6.0625 
Q 32.328125 6.0625 36.34375 10.765625 
Q 40.375 15.484375 40.375 25.140625 
Q 40.375 35.796875 36.265625 40.765625 
Q 32.171875 45.75 26.171875 45.75 
Q 20.3125 45.75 16.375 40.96875 
Q 12.453125 36.1875 12.453125 25.875 
" id="ArialMT-64"/>
      <path d="M 1.953125 0 
L 1.953125 7.125 
L 34.96875 45.015625 
Q 29.34375 44.734375 25.046875 44.734375 
L 3.90625 44.734375 
L 3.90625 51.859375 
L 46.296875 51.859375 
L 46.296875 46.046875 
L 18.21875 13.140625 
L 12.796875 7.125 
Q 18.703125 7.5625 23.875 7.5625 
L 47.859375 7.5625 
L 47.859375 0 
z
" id="ArialMT-7a"/>
      <path d="M 6.59375 -19.875 
L 6.59375 51.859375 
L 14.59375 51.859375 
L 14.59375 45.125 
Q 17.4375 49.078125 21 51.046875 
Q 24.5625 53.03125 29.640625 53.03125 
Q 36.28125 53.03125 41.359375 49.609375 
Q 46.4375 46.1875 49.015625 39.953125 
Q 51.609375 33.734375 51.609375 26.3125 
Q 51.609375 18.359375 48.75 11.984375 
Q 45.90625 5.609375 40.453125 2.21875 
Q 35.015625 -1.171875 29 -1.171875 
Q 24.609375 -1.171875 21.109375 0.6875 
Q 17.625 2.546875 15.375 5.375 
L 15.375 -19.875 
z
M 14.546875 25.640625 
Q 14.546875 15.625 18.59375 10.84375 
Q 22.65625 6.0625 28.421875 6.0625 
Q 34.28125 6.0625 38.453125 11.015625 
Q 42.625 15.96875 42.625 26.375 
Q 42.625 36.28125 38.546875 41.203125 
Q 34.46875 46.140625 28.8125 46.140625 
Q 23.1875 46.140625 18.859375 40.890625 
Q 14.546875 35.640625 14.546875 25.640625 
" id="ArialMT-70"/>
      <path d="M 14.703125 0 
L 6.546875 0 
L 6.546875 71.578125 
L 15.328125 71.578125 
L 15.328125 46.046875 
Q 20.90625 53.03125 29.546875 53.03125 
Q 34.328125 53.03125 38.59375 51.09375 
Q 42.875 49.171875 45.625 45.671875 
Q 48.390625 42.1875 49.953125 37.25 
Q 51.515625 32.328125 51.515625 26.703125 
Q 51.515625 13.375 44.921875 6.09375 
Q 38.328125 -1.171875 29.109375 -1.171875 
Q 19.921875 -1.171875 14.703125 6.5 
z
M 14.59375 26.3125 
Q 14.59375 17 17.140625 12.84375 
Q 21.296875 6.0625 28.375 6.0625 
Q 34.125 6.0625 38.328125 11.0625 
Q 42.53125 16.0625 42.53125 25.984375 
Q 42.53125 36.140625 38.5 40.96875 
Q 34.46875 45.796875 28.765625 45.796875 
Q 23 45.796875 18.796875 40.796875 
Q 14.59375 35.796875 14.59375 26.3125 
" id="ArialMT-62"/>
     </defs>
     <g style="fill:#262626;" transform="translate(112.725469 727.988015)rotate(-90)scale(0.11 -0.11)">
      <use xlink:href="#ArialMT-49"/>
      <use x="27.783203" xlink:href="#ArialMT-6e"/>
      <use x="83.398438" xlink:href="#ArialMT-63"/>
      <use x="133.398438" xlink:href="#ArialMT-69"/>
      <use x="155.615234" xlink:href="#ArialMT-64"/>
      <use x="211.230469" xlink:href="#ArialMT-65"/>
      <use x="266.845703" xlink:href="#ArialMT-6e"/>
      <use x="322.460938" xlink:href="#ArialMT-7a"/>
      <use x="372.460938" xlink:href="#ArialMT-61"/>
      <use x="428.076172" xlink:href="#ArialMT-20"/>
      <use x="455.859375" xlink:href="#ArialMT-64"/>
      <use x="511.474609" xlink:href="#ArialMT-69"/>
      <use x="533.691406" xlink:href="#ArialMT-20"/>
      <use x="561.474609" xlink:href="#ArialMT-6c"/>
      <use x="583.691406" xlink:href="#ArialMT-61"/>
      <use x="639.306641" xlink:href="#ArialMT-76"/>
      <use x="689.306641" xlink:href="#ArialMT-6f"/>
      <use x="744.921875" xlink:href="#ArialMT-72"/>
      <use x="778.222656" xlink:href="#ArialMT-61"/>
      <use x="833.837891" xlink:href="#ArialMT-74"/>
      <use x="861.621094" xlink:href="#ArialMT-6f"/>
      <use x="917.236328" xlink:href="#ArialMT-72"/>
      <use x="950.537109" xlink:href="#ArialMT-69"/>
      <use x="972.753906" xlink:href="#ArialMT-20"/>
      <use x="1000.537109" xlink:href="#ArialMT-64"/>
      <use x="1056.152344" xlink:href="#ArialMT-69"/>
      <use x="1078.369141" xlink:href="#ArialMT-70"/>
      <use x="1133.984375" xlink:href="#ArialMT-65"/>
      <use x="1189.599609" xlink:href="#ArialMT-6e"/>
      <use x="1245.214844" xlink:href="#ArialMT-64"/>
      <use x="1300.830078" xlink:href="#ArialMT-65"/>
      <use x="1356.445312" xlink:href="#ArialMT-6e"/>
      <use x="1412.060547" xlink:href="#ArialMT-74"/>
      <use x="1439.84375" xlink:href="#ArialMT-69"/>
      <use x="1462.060547" xlink:href="#ArialMT-20"/>
      <use x="1489.84375" xlink:href="#ArialMT-63"/>
      <use x="1539.84375" xlink:href="#ArialMT-6f"/>
      <use x="1595.458984" xlink:href="#ArialMT-6e"/>
      <use x="1651.074219" xlink:href="#ArialMT-20"/>
      <use x="1678.857422" xlink:href="#ArialMT-62"/>
      <use x="1734.472656" xlink:href="#ArialMT-61"/>
      <use x="1790.087891" xlink:href="#ArialMT-73"/>
      <use x="1840.087891" xlink:href="#ArialMT-73"/>
      <use x="1890.087891" xlink:href="#ArialMT-61"/>
      <use x="1945.703125" xlink:href="#ArialMT-20"/>
      <use x="1973.486328" xlink:href="#ArialMT-70"/>
      <use x="2029.101562" xlink:href="#ArialMT-61"/>
      <use x="2084.716797" xlink:href="#ArialMT-67"/>
      <use x="2140.332031" xlink:href="#ArialMT-61"/>
      <use x="2195.947266" xlink:href="#ArialMT-20"/>
      <use x="2223.730469" xlink:href="#ArialMT-2d"/>
      <use x="2257.03125" xlink:href="#ArialMT-20"/>
      <use x="2284.814453" xlink:href="#ArialMT-32"/>
      <use x="2340.429688" xlink:href="#ArialMT-30"/>
      <use x="2396.044922" xlink:href="#ArialMT-31"/>
      <use x="2451.660156" xlink:href="#ArialMT-35"/>
     </g>
    </g>
   </g>
   <g id="PathCollection_1">
    <defs>
     <path d="M 0 3.5 
C 0.928211 3.5 1.81853 3.131218 2.474874 2.474874 
C 3.131218 1.81853 3.5 0.928211 3.5 0 
C 3.5 -0.928211 3.131218 -1.81853 2.474874 -2.474874 
C 1.81853 -3.131218 0.928211 -3.5 0 -3.5 
C -0.928211 -3.5 -1.81853 -3.131218 -2.474874 -2.474874 
C -3.131218 -1.81853 -3.5 -0.928211 -3.5 0 
C -3.5 0.928211 -3.131218 1.81853 -2.474874 2.474874 
C -1.81853 3.131218 -0.928211 3.5 0 3.5 
z
" id="m6381ed64f7"/>
    </defs>
    <g clip-path="url(#p0d8ab68773)">
     <use style="fill:#c44e52;fill-opacity:0.8;" x="614.565978" xlink:href="#m6381ed64f7" y="690.34393"/>
     <use style="fill:#c44e52;fill-opacity:0.8;" x="683.439787" xlink:href="#m6381ed64f7" y="737.937489"/>
     <use style="fill:#c44e52;fill-opacity:0.8;" x="693.325563" xlink:href="#m6381ed64f7" y="685.202829"/>
     <use style="fill:#c44e52;fill-opacity:0.8;" x="807.918065" xlink:href="#m6381ed64f7" y="739.31464"/>
     <use style="fill:#c44e52;fill-opacity:0.8;" x="771.654484" xlink:href="#m6381ed64f7" y="742.981683"/>
     <use style="fill:#c44e52;fill-opacity:0.8;" x="661.864244" xlink:href="#m6381ed64f7" y="726.90083"/>
     <use style="fill:#c44e52;fill-opacity:0.8;" x="885.636471" xlink:href="#m6381ed64f7" y="759.532941"/>
     <use style="fill:#c44e52;fill-opacity:0.8;" x="700.604331" xlink:href="#m6381ed64f7" y="739.207242"/>
     <use style="fill:#c44e52;fill-opacity:0.8;" x="716.522785" xlink:href="#m6381ed64f7" y="713.080851"/>
     <use style="fill:#c44e52;fill-opacity:0.8;" x="783.053157" xlink:href="#m6381ed64f7" y="722.824118"/>
     <use style="fill:#c44e52;fill-opacity:0.8;" x="818.270111" xlink:href="#m6381ed64f7" y="682.375613"/>
     <use style="fill:#c44e52;fill-opacity:0.8;" x="891.532634" xlink:href="#m6381ed64f7" y="649.696976"/>
     <use style="fill:#c44e52;fill-opacity:0.8;" x="781.945583" xlink:href="#m6381ed64f7" y="616.809511"/>
     <use style="fill:#c44e52;fill-opacity:0.8;" x="883.334333" xlink:href="#m6381ed64f7" y="627.570253"/>
     <use style="fill:#c44e52;fill-opacity:0.8;" x="649.027433" xlink:href="#m6381ed64f7" y="676.322784"/>
     <use style="fill:#c44e52;fill-opacity:0.8;" x="911.508009" xlink:href="#m6381ed64f7" y="574.739624"/>
     <use style="fill:#c44e52;fill-opacity:0.8;" x="420.994043" xlink:href="#m6381ed64f7" y="446.118857"/>
     <use style="fill:#c44e52;fill-opacity:0.8;" x="426.186023" xlink:href="#m6381ed64f7" y="449.861184"/>
     <use style="fill:#c44e52;fill-opacity:0.8;" x="574.991907" xlink:href="#m6381ed64f7" y="573.681542"/>
     <use style="fill:#c44e52;fill-opacity:0.8;" x="624.046362" xlink:href="#m6381ed64f7" y="399.94233"/>
     <use style="fill:#c44e52;fill-opacity:0.8;" x="411.630104" xlink:href="#m6381ed64f7" y="470.867068"/>
     <use style="fill:#c44e52;fill-opacity:0.8;" x="427.295178" xlink:href="#m6381ed64f7" y="657.503113"/>
     <use style="fill:#c44e52;fill-opacity:0.8;" x="743.968165" xlink:href="#m6381ed64f7" y="725.615235"/>
     <use style="fill:#c44e52;fill-opacity:0.8;" x="852.145689" xlink:href="#m6381ed64f7" y="645.050604"/>
     <use style="fill:#c44e52;fill-opacity:0.8;" x="465.432939" xlink:href="#m6381ed64f7" y="492.788519"/>
     <use style="fill:#c44e52;fill-opacity:0.8;" x="663.336088" xlink:href="#m6381ed64f7" y="648.016926"/>
    </g>
   </g>
   <g id="PolyCollection_1">
    <path clip-path="url(#p0d8ab68773)" d="M 137.1625 306.063218 
L 137.1625 568.394993 
L 147.756572 570.243848 
L 158.350644 572.088673 
L 168.944716 573.893695 
L 179.538787 575.183872 
L 190.132859 576.590783 
L 200.726931 578.256118 
L 211.321003 579.921453 
L 221.915075 581.586788 
L 232.509147 583.20212 
L 243.103218 584.684284 
L 253.69729 586.166448 
L 264.291362 587.648612 
L 274.885434 589.130776 
L 285.479506 590.895848 
L 296.073578 592.722588 
L 306.667649 594.549328 
L 317.261721 596.376067 
L 327.855793 598.202807 
L 338.449865 599.956903 
L 349.043937 601.631073 
L 359.638009 603.305244 
L 370.23208 604.979414 
L 380.826152 606.653584 
L 391.420224 608.369255 
L 402.014296 610.180968 
L 412.608368 612.085157 
L 423.20244 613.809508 
L 433.796512 615.633519 
L 444.390583 617.56977 
L 454.984655 619.567215 
L 465.578727 621.564478 
L 476.172799 623.56174 
L 486.766871 625.559002 
L 497.360943 627.494408 
L 507.955014 629.329432 
L 518.549086 631.562725 
L 529.143158 633.157842 
L 539.73723 635.202896 
L 550.331302 637.175081 
L 560.925374 639.57335 
L 571.519445 642.279996 
L 582.113517 644.317969 
L 592.707589 647.506821 
L 603.301661 649.599239 
L 613.895733 652.230438 
L 624.489805 654.790642 
L 635.083877 657.174271 
L 645.677948 660.107111 
L 656.27202 663.283679 
L 666.866092 666.769581 
L 677.460164 670.743252 
L 688.054236 674.144828 
L 698.648308 678.359507 
L 709.242379 681.717704 
L 719.836451 686.130248 
L 730.430523 690.265179 
L 741.024595 694.642398 
L 751.618667 699.767574 
L 762.212739 705.391604 
L 772.80681 710.975696 
L 783.400882 716.98798 
L 793.994954 722.791883 
L 804.589026 728.142705 
L 815.183098 733.518965 
L 825.77717 739.677376 
L 836.371241 745.242401 
L 846.965313 751.796196 
L 857.559385 757.602212 
L 868.153457 763.560165 
L 878.747529 769.891411 
L 889.341601 776.573833 
L 899.935673 783.236902 
L 910.529744 789.588759 
L 921.123816 795.590456 
L 931.717888 801.584604 
L 942.31196 807.578753 
L 952.906032 813.572901 
L 963.500104 819.567049 
L 974.094175 825.561197 
L 984.688247 831.552715 
L 995.282319 837.598695 
L 1005.876391 843.675543 
L 1016.470463 849.94736 
L 1027.064535 856.314001 
L 1037.658606 862.307443 
L 1048.252678 868.494134 
L 1058.84675 874.67786 
L 1069.440822 880.888902 
L 1080.034894 887.632901 
L 1090.628966 894.370316 
L 1101.223038 900.694014 
L 1111.817109 906.371077 
L 1122.411181 912.607399 
L 1133.005253 918.973049 
L 1143.599325 925.3387 
L 1154.193397 931.70435 
L 1164.787469 938.320256 
L 1175.38154 945.002075 
L 1185.975612 951.683893 
L 1185.975612 727.662842 
L 1185.975612 727.662842 
L 1175.38154 726.142301 
L 1164.787469 724.62176 
L 1154.193397 723.15782 
L 1143.599325 721.786451 
L 1133.005253 720.415083 
L 1122.411181 719.043715 
L 1111.817109 716.842792 
L 1101.223038 714.383573 
L 1090.628966 712.758523 
L 1080.034894 711.347736 
L 1069.440822 709.365585 
L 1058.84675 707.370694 
L 1048.252678 704.193882 
L 1037.658606 701.415351 
L 1027.064535 699.423469 
L 1016.470463 696.603121 
L 1005.876391 695.627123 
L 995.282319 693.441826 
L 984.688247 691.44555 
L 974.094175 689.346306 
L 963.500104 687.646844 
L 952.906032 685.415478 
L 942.31196 683.201619 
L 931.717888 681.141884 
L 921.123816 679.21828 
L 910.529744 677.741423 
L 899.935673 675.148998 
L 889.341601 672.305012 
L 878.747529 669.553376 
L 868.153457 666.609967 
L 857.559385 663.813516 
L 846.965313 661.201212 
L 836.371241 657.912715 
L 825.77717 654.475042 
L 815.183098 651.343691 
L 804.589026 648.533842 
L 793.994954 645.653976 
L 783.400882 641.501134 
L 772.80681 637.257964 
L 762.212739 632.801517 
L 751.618667 628.650264 
L 741.024595 625.511075 
L 730.430523 621.019067 
L 719.836451 617.075482 
L 709.242379 612.574784 
L 698.648308 608.217951 
L 688.054236 603.325617 
L 677.460164 599.191039 
L 666.866092 594.849416 
L 656.27202 590.678552 
L 645.677948 586.096252 
L 635.083877 581.176299 
L 624.489805 576.769708 
L 613.895733 571.882848 
L 603.301661 567.344826 
L 592.707589 562.668251 
L 582.113517 558.13488 
L 571.519445 553.108237 
L 560.925374 546.936204 
L 550.331302 542.104131 
L 539.73723 536.578998 
L 529.143158 530.909057 
L 518.549086 525.51325 
L 507.955014 519.890519 
L 497.360943 513.986044 
L 486.766871 507.911333 
L 476.172799 501.773026 
L 465.578727 495.696189 
L 454.984655 489.824713 
L 444.390583 483.338635 
L 433.796512 477.741764 
L 423.20244 473.006829 
L 412.608368 466.486401 
L 402.014296 459.556154 
L 391.420224 453.281736 
L 380.826152 447.9121 
L 370.23208 442.57355 
L 359.638009 437.234999 
L 349.043937 431.002544 
L 338.449865 425.46925 
L 327.855793 419.180705 
L 317.261721 412.892161 
L 306.667649 406.603616 
L 296.073578 400.321333 
L 285.479506 394.058647 
L 274.885434 387.715103 
L 264.291362 380.4416 
L 253.69729 374.324372 
L 243.103218 368.794433 
L 232.509147 362.371124 
L 221.915075 356.34729 
L 211.321003 350.052981 
L 200.726931 343.758672 
L 190.132859 337.464363 
L 179.538787 331.171537 
L 168.944716 324.894457 
L 158.350644 318.617377 
L 147.756572 312.340298 
L 137.1625 306.063218 
z
" style="fill:#c44e52;fill-opacity:0.15;"/>
   </g>
   <g id="line2d_27">
    <path clip-path="url(#p0d8ab68773)" d="M 137.1625 422.816084 
L 147.756572 426.966182 
L 158.350644 431.11628 
L 168.944716 435.266378 
L 179.538787 439.416476 
L 190.132859 443.566575 
L 200.726931 447.716673 
L 211.321003 451.866771 
L 221.915075 456.016869 
L 232.509147 460.166967 
L 243.103218 464.317065 
L 253.69729 468.467164 
L 264.291362 472.617262 
L 274.885434 476.76736 
L 285.479506 480.917458 
L 296.073578 485.067556 
L 306.667649 489.217655 
L 317.261721 493.367753 
L 327.855793 497.517851 
L 338.449865 501.667949 
L 349.043937 505.818047 
L 359.638009 509.968145 
L 370.23208 514.118244 
L 380.826152 518.268342 
L 391.420224 522.41844 
L 402.014296 526.568538 
L 412.608368 530.718636 
L 423.20244 534.868734 
L 433.796512 539.018833 
L 444.390583 543.168931 
L 454.984655 547.319029 
L 465.578727 551.469127 
L 476.172799 555.619225 
L 486.766871 559.769324 
L 497.360943 563.919422 
L 507.955014 568.06952 
L 518.549086 572.219618 
L 529.143158 576.369716 
L 539.73723 580.519814 
L 550.331302 584.669913 
L 560.925374 588.820011 
L 571.519445 592.970109 
L 582.113517 597.120207 
L 592.707589 601.270305 
L 603.301661 605.420403 
L 613.895733 609.570502 
L 624.489805 613.7206 
L 635.083877 617.870698 
L 645.677948 622.020796 
L 656.27202 626.170894 
L 666.866092 630.320993 
L 677.460164 634.471091 
L 688.054236 638.621189 
L 698.648308 642.771287 
L 709.242379 646.921385 
L 719.836451 651.071483 
L 730.430523 655.221582 
L 741.024595 659.37168 
L 751.618667 663.521778 
L 762.212739 667.671876 
L 772.80681 671.821974 
L 783.400882 675.972072 
L 793.994954 680.122171 
L 804.589026 684.272269 
L 815.183098 688.422367 
L 825.77717 692.572465 
L 836.371241 696.722563 
L 846.965313 700.872662 
L 857.559385 705.02276 
L 868.153457 709.172858 
L 878.747529 713.322956 
L 889.341601 717.473054 
L 899.935673 721.623152 
L 910.529744 725.773251 
L 921.123816 729.923349 
L 931.717888 734.073447 
L 942.31196 738.223545 
L 952.906032 742.373643 
L 963.500104 746.523741 
L 974.094175 750.67384 
L 984.688247 754.823938 
L 995.282319 758.974036 
L 1005.876391 763.124134 
L 1016.470463 767.274232 
L 1027.064535 771.424331 
L 1037.658606 775.574429 
L 1048.252678 779.724527 
L 1058.84675 783.874625 
L 1069.440822 788.024723 
L 1080.034894 792.174821 
L 1090.628966 796.32492 
L 1101.223038 800.475018 
L 1111.817109 804.625116 
L 1122.411181 808.775214 
L 1133.005253 812.925312 
L 1143.599325 817.07541 
L 1154.193397 821.225509 
L 1164.787469 825.375607 
L 1175.38154 829.525705 
L 1185.975612 833.675803 
" style="fill:none;stroke:#c44e52;stroke-linecap:round;stroke-width:2.625;"/>
   </g>
   <g id="patch_3">
    <path d="M 137.1625 987.842411 
L 137.1625 192.355026 
" style="fill:none;"/>
   </g>
   <g id="patch_4">
    <path d="M 137.1625 987.842411 
L 1185.975612 987.842411 
" style="fill:none;"/>
   </g>
   <g id="text_16">
    <!-- Piemonte -->
    <defs>
     <path d="M 7.71875 0 
L 7.71875 71.578125 
L 34.71875 71.578125 
Q 41.84375 71.578125 45.609375 70.90625 
Q 50.875 70.015625 54.4375 67.546875 
Q 58.015625 65.09375 60.1875 60.640625 
Q 62.359375 56.203125 62.359375 50.875 
Q 62.359375 41.75 56.546875 35.421875 
Q 50.734375 29.109375 35.546875 29.109375 
L 17.1875 29.109375 
L 17.1875 0 
z
M 17.1875 37.546875 
L 35.6875 37.546875 
Q 44.875 37.546875 48.734375 40.96875 
Q 52.59375 44.390625 52.59375 50.59375 
Q 52.59375 55.078125 50.3125 58.265625 
Q 48.046875 61.46875 44.34375 62.5 
Q 41.9375 63.140625 35.5 63.140625 
L 17.1875 63.140625 
z
" id="ArialMT-50"/>
     <path d="M 6.59375 0 
L 6.59375 51.859375 
L 14.453125 51.859375 
L 14.453125 44.578125 
Q 16.890625 48.390625 20.9375 50.703125 
Q 25 53.03125 30.171875 53.03125 
Q 35.9375 53.03125 39.625 50.640625 
Q 43.3125 48.25 44.828125 43.953125 
Q 50.984375 53.03125 60.84375 53.03125 
Q 68.5625 53.03125 72.703125 48.75 
Q 76.859375 44.484375 76.859375 35.59375 
L 76.859375 0 
L 68.109375 0 
L 68.109375 32.671875 
Q 68.109375 37.9375 67.25 40.25 
Q 66.40625 42.578125 64.15625 43.984375 
Q 61.921875 45.40625 58.890625 45.40625 
Q 53.421875 45.40625 49.796875 41.765625 
Q 46.1875 38.140625 46.1875 30.125 
L 46.1875 0 
L 37.40625 0 
L 37.40625 33.6875 
Q 37.40625 39.546875 35.25 42.46875 
Q 33.109375 45.40625 28.21875 45.40625 
Q 24.515625 45.40625 21.359375 43.453125 
Q 18.21875 41.5 16.796875 37.734375 
Q 15.375 33.984375 15.375 26.90625 
L 15.375 0 
z
" id="ArialMT-6d"/>
    </defs>
    <g style="fill:#262626;" transform="translate(616.565978 688.34393)scale(0.12 -0.12)">
     <use xlink:href="#ArialMT-50"/>
     <use x="66.699219" xlink:href="#ArialMT-69"/>
     <use x="88.916016" xlink:href="#ArialMT-65"/>
     <use x="144.53125" xlink:href="#ArialMT-6d"/>
     <use x="227.832031" xlink:href="#ArialMT-6f"/>
     <use x="283.447266" xlink:href="#ArialMT-6e"/>
     <use x="339.0625" xlink:href="#ArialMT-74"/>
     <use x="366.845703" xlink:href="#ArialMT-65"/>
    </g>
   </g>
   <g id="text_17">
    <!-- Valle d'Aosta/Vallée d'Aoste -->
    <defs>
     <path d="M 28.171875 0 
L 0.4375 71.578125 
L 10.6875 71.578125 
L 29.296875 19.578125 
Q 31.546875 13.328125 33.0625 7.859375 
Q 34.71875 13.71875 36.921875 19.578125 
L 56.25 71.578125 
L 65.921875 71.578125 
L 37.890625 0 
z
" id="ArialMT-56"/>
     <path d="M 6.640625 46.234375 
L 4.390625 59.625 
L 4.390625 71.578125 
L 14.40625 71.578125 
L 14.40625 59.625 
L 12.0625 46.234375 
z
" id="ArialMT-27"/>
     <path d="M -0.140625 0 
L 27.34375 71.578125 
L 37.546875 71.578125 
L 66.84375 0 
L 56.0625 0 
L 47.703125 21.6875 
L 17.78125 21.6875 
L 9.90625 0 
z
M 20.515625 29.390625 
L 44.78125 29.390625 
L 37.3125 49.21875 
Q 33.890625 58.25 32.234375 64.0625 
Q 30.859375 57.171875 28.375 50.390625 
z
" id="ArialMT-41"/>
     <path d="M 0 -1.21875 
L 20.75 72.796875 
L 27.78125 72.796875 
L 7.078125 -1.21875 
z
" id="ArialMT-2f"/>
     <path d="M 42.09375 16.703125 
L 51.171875 15.578125 
Q 49.03125 7.625 43.21875 3.21875 
Q 37.40625 -1.171875 28.375 -1.171875 
Q 17 -1.171875 10.328125 5.828125 
Q 3.65625 12.84375 3.65625 25.484375 
Q 3.65625 38.578125 10.390625 45.796875 
Q 17.140625 53.03125 27.875 53.03125 
Q 38.28125 53.03125 44.875 45.953125 
Q 51.46875 38.875 51.46875 26.03125 
Q 51.46875 25.25 51.421875 23.6875 
L 12.75 23.6875 
Q 13.234375 15.140625 17.578125 10.59375 
Q 21.921875 6.0625 28.421875 6.0625 
Q 33.25 6.0625 36.671875 8.59375 
Q 40.09375 11.140625 42.09375 16.703125 
M 13.234375 30.90625 
L 42.1875 30.90625 
Q 41.609375 37.453125 38.875 40.71875 
Q 34.671875 45.796875 27.984375 45.796875 
Q 21.921875 45.796875 17.796875 41.75 
Q 13.671875 37.703125 13.234375 30.90625 
M 22.71875 58.296875 
L 29.203125 71.96875 
L 40.734375 71.96875 
L 29.984375 58.296875 
z
" id="ArialMT-e9"/>
    </defs>
    <g style="fill:#262626;" transform="translate(685.439787 735.937489)scale(0.12 -0.12)">
     <use xlink:href="#ArialMT-56"/>
     <use x="66.589844" xlink:href="#ArialMT-61"/>
     <use x="122.205078" xlink:href="#ArialMT-6c"/>
     <use x="144.421875" xlink:href="#ArialMT-6c"/>
     <use x="166.638672" xlink:href="#ArialMT-65"/>
     <use x="222.253906" xlink:href="#ArialMT-20"/>
     <use x="250.037109" xlink:href="#ArialMT-64"/>
     <use x="305.652344" xlink:href="#ArialMT-27"/>
     <use x="324.744141" xlink:href="#ArialMT-41"/>
     <use x="391.443359" xlink:href="#ArialMT-6f"/>
     <use x="447.058594" xlink:href="#ArialMT-73"/>
     <use x="497.058594" xlink:href="#ArialMT-74"/>
     <use x="524.841797" xlink:href="#ArialMT-61"/>
     <use x="580.457031" xlink:href="#ArialMT-2f"/>
     <use x="608.240234" xlink:href="#ArialMT-56"/>
     <use x="674.830078" xlink:href="#ArialMT-61"/>
     <use x="730.445312" xlink:href="#ArialMT-6c"/>
     <use x="752.662109" xlink:href="#ArialMT-6c"/>
     <use x="774.878906" xlink:href="#ArialMT-e9"/>
     <use x="830.494141" xlink:href="#ArialMT-65"/>
     <use x="886.109375" xlink:href="#ArialMT-20"/>
     <use x="913.892578" xlink:href="#ArialMT-64"/>
     <use x="969.507812" xlink:href="#ArialMT-27"/>
     <use x="988.599609" xlink:href="#ArialMT-41"/>
     <use x="1055.298828" xlink:href="#ArialMT-6f"/>
     <use x="1110.914062" xlink:href="#ArialMT-73"/>
     <use x="1160.914062" xlink:href="#ArialMT-74"/>
     <use x="1188.697266" xlink:href="#ArialMT-65"/>
    </g>
   </g>
   <g id="text_18">
    <!-- Liguria -->
    <defs>
     <path d="M 7.328125 0 
L 7.328125 71.578125 
L 16.796875 71.578125 
L 16.796875 8.453125 
L 52.046875 8.453125 
L 52.046875 0 
z
" id="ArialMT-4c"/>
    </defs>
    <g style="fill:#262626;" transform="translate(695.325563 683.202829)scale(0.12 -0.12)">
     <use xlink:href="#ArialMT-4c"/>
     <use x="55.615234" xlink:href="#ArialMT-69"/>
     <use x="77.832031" xlink:href="#ArialMT-67"/>
     <use x="133.447266" xlink:href="#ArialMT-75"/>
     <use x="189.0625" xlink:href="#ArialMT-72"/>
     <use x="222.363281" xlink:href="#ArialMT-69"/>
     <use x="244.580078" xlink:href="#ArialMT-61"/>
    </g>
   </g>
   <g id="text_19">
    <!-- Lombardia -->
    <g style="fill:#262626;" transform="translate(809.918065 737.31464)scale(0.12 -0.12)">
     <use xlink:href="#ArialMT-4c"/>
     <use x="55.615234" xlink:href="#ArialMT-6f"/>
     <use x="111.230469" xlink:href="#ArialMT-6d"/>
     <use x="194.53125" xlink:href="#ArialMT-62"/>
     <use x="250.146484" xlink:href="#ArialMT-61"/>
     <use x="305.761719" xlink:href="#ArialMT-72"/>
     <use x="339.0625" xlink:href="#ArialMT-64"/>
     <use x="394.677734" xlink:href="#ArialMT-69"/>
     <use x="416.894531" xlink:href="#ArialMT-61"/>
    </g>
   </g>
   <g id="text_20">
    <!-- Trentino-Alto Adige/Südtirol -->
    <defs>
     <path d="M 25.921875 0 
L 25.921875 63.140625 
L 2.34375 63.140625 
L 2.34375 71.578125 
L 59.078125 71.578125 
L 59.078125 63.140625 
L 35.40625 63.140625 
L 35.40625 0 
z
" id="ArialMT-54"/>
     <path d="M 4.5 23 
L 13.421875 23.78125 
Q 14.0625 18.40625 16.375 14.96875 
Q 18.703125 11.53125 23.578125 9.40625 
Q 28.46875 7.28125 34.578125 7.28125 
Q 39.984375 7.28125 44.140625 8.890625 
Q 48.296875 10.5 50.3125 13.296875 
Q 52.34375 16.109375 52.34375 19.4375 
Q 52.34375 22.796875 50.390625 25.3125 
Q 48.4375 27.828125 43.953125 29.546875 
Q 41.0625 30.671875 31.203125 33.03125 
Q 21.34375 35.40625 17.390625 37.5 
Q 12.25 40.1875 9.734375 44.15625 
Q 7.234375 48.140625 7.234375 53.078125 
Q 7.234375 58.5 10.296875 63.203125 
Q 13.375 67.921875 19.28125 70.359375 
Q 25.203125 72.796875 32.421875 72.796875 
Q 40.375 72.796875 46.453125 70.234375 
Q 52.546875 67.671875 55.8125 62.6875 
Q 59.078125 57.71875 59.328125 51.421875 
L 50.25 50.734375 
Q 49.515625 57.515625 45.28125 60.984375 
Q 41.0625 64.453125 32.8125 64.453125 
Q 24.21875 64.453125 20.28125 61.296875 
Q 16.359375 58.15625 16.359375 53.71875 
Q 16.359375 49.859375 19.140625 47.359375 
Q 21.875 44.875 33.421875 42.265625 
Q 44.96875 39.65625 49.265625 37.703125 
Q 55.515625 34.8125 58.484375 30.390625 
Q 61.46875 25.984375 61.46875 20.21875 
Q 61.46875 14.5 58.203125 9.4375 
Q 54.9375 4.390625 48.796875 1.578125 
Q 42.671875 -1.21875 35.015625 -1.21875 
Q 25.296875 -1.21875 18.71875 1.609375 
Q 12.15625 4.4375 8.421875 10.125 
Q 4.6875 15.828125 4.5 23 
" id="ArialMT-53"/>
     <path d="M 40.578125 0 
L 40.578125 7.625 
Q 34.515625 -1.171875 24.125 -1.171875 
Q 19.53125 -1.171875 15.546875 0.578125 
Q 11.578125 2.34375 9.640625 5 
Q 7.71875 7.671875 6.9375 11.53125 
Q 6.390625 14.109375 6.390625 19.734375 
L 6.390625 51.859375 
L 15.1875 51.859375 
L 15.1875 23.09375 
Q 15.1875 16.21875 15.71875 13.8125 
Q 16.546875 10.359375 19.234375 8.375 
Q 21.921875 6.390625 25.875 6.390625 
Q 29.828125 6.390625 33.296875 8.421875 
Q 36.765625 10.453125 38.203125 13.9375 
Q 39.65625 17.4375 39.65625 24.078125 
L 39.65625 51.859375 
L 48.4375 51.859375 
L 48.4375 0 
z
M 13.734375 62.015625 
L 13.734375 72.015625 
L 22.90625 72.015625 
L 22.90625 62.015625 
z
M 31.9375 62.015625 
L 31.9375 72.015625 
L 41.125 72.015625 
L 41.125 62.015625 
z
" id="ArialMT-fc"/>
    </defs>
    <g style="fill:#262626;" transform="translate(773.654484 740.981683)scale(0.12 -0.12)">
     <use xlink:href="#ArialMT-54"/>
     <use x="61.037109" xlink:href="#ArialMT-72"/>
     <use x="94.337891" xlink:href="#ArialMT-65"/>
     <use x="149.953125" xlink:href="#ArialMT-6e"/>
     <use x="205.568359" xlink:href="#ArialMT-74"/>
     <use x="233.351562" xlink:href="#ArialMT-69"/>
     <use x="255.568359" xlink:href="#ArialMT-6e"/>
     <use x="311.183594" xlink:href="#ArialMT-6f"/>
     <use x="366.798828" xlink:href="#ArialMT-2d"/>
     <use x="400.099609" xlink:href="#ArialMT-41"/>
     <use x="466.798828" xlink:href="#ArialMT-6c"/>
     <use x="489.015625" xlink:href="#ArialMT-74"/>
     <use x="516.798828" xlink:href="#ArialMT-6f"/>
     <use x="572.414062" xlink:href="#ArialMT-20"/>
     <use x="600.119141" xlink:href="#ArialMT-41"/>
     <use x="666.818359" xlink:href="#ArialMT-64"/>
     <use x="722.433594" xlink:href="#ArialMT-69"/>
     <use x="744.650391" xlink:href="#ArialMT-67"/>
     <use x="800.265625" xlink:href="#ArialMT-65"/>
     <use x="855.880859" xlink:href="#ArialMT-2f"/>
     <use x="883.664062" xlink:href="#ArialMT-53"/>
     <use x="950.363281" xlink:href="#ArialMT-fc"/>
     <use x="1005.978516" xlink:href="#ArialMT-64"/>
     <use x="1061.59375" xlink:href="#ArialMT-74"/>
     <use x="1089.376953" xlink:href="#ArialMT-69"/>
     <use x="1111.59375" xlink:href="#ArialMT-72"/>
     <use x="1144.894531" xlink:href="#ArialMT-6f"/>
     <use x="1200.509766" xlink:href="#ArialMT-6c"/>
    </g>
   </g>
   <g id="text_21">
    <!-- Bolzano/Bozen -->
    <defs>
     <path d="M 7.328125 0 
L 7.328125 71.578125 
L 34.1875 71.578125 
Q 42.390625 71.578125 47.34375 69.40625 
Q 52.296875 67.234375 55.09375 62.71875 
Q 57.90625 58.203125 57.90625 53.265625 
Q 57.90625 48.6875 55.421875 44.625 
Q 52.9375 40.578125 47.90625 38.09375 
Q 54.390625 36.1875 57.875 31.59375 
Q 61.375 27 61.375 20.75 
Q 61.375 15.71875 59.25 11.390625 
Q 57.125 7.078125 54 4.734375 
Q 50.875 2.390625 46.15625 1.1875 
Q 41.453125 0 34.625 0 
z
M 16.796875 41.5 
L 32.28125 41.5 
Q 38.578125 41.5 41.3125 42.328125 
Q 44.921875 43.40625 46.75 45.890625 
Q 48.578125 48.390625 48.578125 52.15625 
Q 48.578125 55.71875 46.875 58.421875 
Q 45.171875 61.140625 41.984375 62.140625 
Q 38.8125 63.140625 31.109375 63.140625 
L 16.796875 63.140625 
z
M 16.796875 8.453125 
L 34.625 8.453125 
Q 39.203125 8.453125 41.0625 8.796875 
Q 44.34375 9.375 46.53125 10.734375 
Q 48.734375 12.109375 50.140625 14.71875 
Q 51.5625 17.328125 51.5625 20.75 
Q 51.5625 24.75 49.515625 27.703125 
Q 47.46875 30.671875 43.828125 31.859375 
Q 40.1875 33.0625 33.34375 33.0625 
L 16.796875 33.0625 
z
" id="ArialMT-42"/>
    </defs>
    <g style="fill:#262626;" transform="translate(663.864244 724.90083)scale(0.12 -0.12)">
     <use xlink:href="#ArialMT-42"/>
     <use x="66.699219" xlink:href="#ArialMT-6f"/>
     <use x="122.314453" xlink:href="#ArialMT-6c"/>
     <use x="144.53125" xlink:href="#ArialMT-7a"/>
     <use x="194.53125" xlink:href="#ArialMT-61"/>
     <use x="250.146484" xlink:href="#ArialMT-6e"/>
     <use x="305.761719" xlink:href="#ArialMT-6f"/>
     <use x="361.376953" xlink:href="#ArialMT-2f"/>
     <use x="389.160156" xlink:href="#ArialMT-42"/>
     <use x="455.859375" xlink:href="#ArialMT-6f"/>
     <use x="511.474609" xlink:href="#ArialMT-7a"/>
     <use x="561.474609" xlink:href="#ArialMT-65"/>
     <use x="617.089844" xlink:href="#ArialMT-6e"/>
    </g>
   </g>
   <g id="text_22">
    <!-- Trento -->
    <g style="fill:#262626;" transform="translate(887.636471 757.532941)scale(0.12 -0.12)">
     <use xlink:href="#ArialMT-54"/>
     <use x="61.037109" xlink:href="#ArialMT-72"/>
     <use x="94.337891" xlink:href="#ArialMT-65"/>
     <use x="149.953125" xlink:href="#ArialMT-6e"/>
     <use x="205.568359" xlink:href="#ArialMT-74"/>
     <use x="233.351562" xlink:href="#ArialMT-6f"/>
    </g>
   </g>
   <g id="text_23">
    <!-- Veneto -->
    <g style="fill:#262626;" transform="translate(702.604331 737.207242)scale(0.12 -0.12)">
     <use xlink:href="#ArialMT-56"/>
     <use x="66.621094" xlink:href="#ArialMT-65"/>
     <use x="122.236328" xlink:href="#ArialMT-6e"/>
     <use x="177.851562" xlink:href="#ArialMT-65"/>
     <use x="233.466797" xlink:href="#ArialMT-74"/>
     <use x="261.25" xlink:href="#ArialMT-6f"/>
    </g>
   </g>
   <g id="text_24">
    <!-- Friuli-Venezia Giulia -->
    <defs>
     <path d="M 8.203125 0 
L 8.203125 71.578125 
L 56.5 71.578125 
L 56.5 63.140625 
L 17.671875 63.140625 
L 17.671875 40.96875 
L 51.265625 40.96875 
L 51.265625 32.515625 
L 17.671875 32.515625 
L 17.671875 0 
z
" id="ArialMT-46"/>
     <path d="M 41.21875 28.078125 
L 41.21875 36.46875 
L 71.53125 36.53125 
L 71.53125 9.96875 
Q 64.546875 4.390625 57.125 1.578125 
Q 49.703125 -1.21875 41.890625 -1.21875 
Q 31.34375 -1.21875 22.71875 3.296875 
Q 14.109375 7.8125 9.71875 16.359375 
Q 5.328125 24.90625 5.328125 35.453125 
Q 5.328125 45.90625 9.6875 54.953125 
Q 14.0625 64.015625 22.265625 68.40625 
Q 30.46875 72.796875 41.15625 72.796875 
Q 48.921875 72.796875 55.1875 70.28125 
Q 61.46875 67.78125 65.03125 63.28125 
Q 68.609375 58.796875 70.453125 51.5625 
L 61.921875 49.21875 
Q 60.296875 54.6875 57.90625 57.8125 
Q 55.515625 60.9375 51.0625 62.8125 
Q 46.625 64.703125 41.21875 64.703125 
Q 34.71875 64.703125 29.984375 62.71875 
Q 25.25 60.75 22.34375 57.515625 
Q 19.4375 54.296875 17.828125 50.4375 
Q 15.09375 43.796875 15.09375 36.03125 
Q 15.09375 26.46875 18.390625 20.015625 
Q 21.6875 13.578125 27.984375 10.453125 
Q 34.28125 7.328125 41.359375 7.328125 
Q 47.515625 7.328125 53.375 9.6875 
Q 59.234375 12.0625 62.25 14.75 
L 62.25 28.078125 
z
" id="ArialMT-47"/>
    </defs>
    <g style="fill:#262626;" transform="translate(718.522785 711.080851)scale(0.12 -0.12)">
     <use xlink:href="#ArialMT-46"/>
     <use x="61.083984" xlink:href="#ArialMT-72"/>
     <use x="94.384766" xlink:href="#ArialMT-69"/>
     <use x="116.601562" xlink:href="#ArialMT-75"/>
     <use x="172.216797" xlink:href="#ArialMT-6c"/>
     <use x="194.433594" xlink:href="#ArialMT-69"/>
     <use x="216.650391" xlink:href="#ArialMT-2d"/>
     <use x="249.951172" xlink:href="#ArialMT-56"/>
     <use x="316.572266" xlink:href="#ArialMT-65"/>
     <use x="372.1875" xlink:href="#ArialMT-6e"/>
     <use x="427.802734" xlink:href="#ArialMT-65"/>
     <use x="483.417969" xlink:href="#ArialMT-7a"/>
     <use x="533.417969" xlink:href="#ArialMT-69"/>
     <use x="555.634766" xlink:href="#ArialMT-61"/>
     <use x="611.25" xlink:href="#ArialMT-20"/>
     <use x="639.033203" xlink:href="#ArialMT-47"/>
     <use x="716.816406" xlink:href="#ArialMT-69"/>
     <use x="739.033203" xlink:href="#ArialMT-75"/>
     <use x="794.648438" xlink:href="#ArialMT-6c"/>
     <use x="816.865234" xlink:href="#ArialMT-69"/>
     <use x="839.082031" xlink:href="#ArialMT-61"/>
    </g>
   </g>
   <g id="text_25">
    <!-- Emilia-Romagna -->
    <defs>
     <path d="M 7.90625 0 
L 7.90625 71.578125 
L 59.671875 71.578125 
L 59.671875 63.140625 
L 17.390625 63.140625 
L 17.390625 41.21875 
L 56.984375 41.21875 
L 56.984375 32.8125 
L 17.390625 32.8125 
L 17.390625 8.453125 
L 61.328125 8.453125 
L 61.328125 0 
z
" id="ArialMT-45"/>
     <path d="M 7.859375 0 
L 7.859375 71.578125 
L 39.59375 71.578125 
Q 49.171875 71.578125 54.140625 69.640625 
Q 59.125 67.71875 62.109375 62.828125 
Q 65.09375 57.953125 65.09375 52.046875 
Q 65.09375 44.4375 60.15625 39.203125 
Q 55.21875 33.984375 44.921875 32.5625 
Q 48.6875 30.765625 50.640625 29 
Q 54.78125 25.203125 58.5 19.484375 
L 70.953125 0 
L 59.03125 0 
L 49.5625 14.890625 
Q 45.40625 21.34375 42.71875 24.75 
Q 40.046875 28.171875 37.921875 29.53125 
Q 35.796875 30.90625 33.59375 31.453125 
Q 31.984375 31.78125 28.328125 31.78125 
L 17.328125 31.78125 
L 17.328125 0 
z
M 17.328125 39.984375 
L 37.703125 39.984375 
Q 44.1875 39.984375 47.84375 41.328125 
Q 51.515625 42.671875 53.421875 45.625 
Q 55.328125 48.578125 55.328125 52.046875 
Q 55.328125 57.125 51.640625 60.390625 
Q 47.953125 63.671875 39.984375 63.671875 
L 17.328125 63.671875 
z
" id="ArialMT-52"/>
    </defs>
    <g style="fill:#262626;" transform="translate(785.053157 720.824118)scale(0.12 -0.12)">
     <use xlink:href="#ArialMT-45"/>
     <use x="66.699219" xlink:href="#ArialMT-6d"/>
     <use x="150" xlink:href="#ArialMT-69"/>
     <use x="172.216797" xlink:href="#ArialMT-6c"/>
     <use x="194.433594" xlink:href="#ArialMT-69"/>
     <use x="216.650391" xlink:href="#ArialMT-61"/>
     <use x="272.265625" xlink:href="#ArialMT-2d"/>
     <use x="305.566406" xlink:href="#ArialMT-52"/>
     <use x="377.783203" xlink:href="#ArialMT-6f"/>
     <use x="433.398438" xlink:href="#ArialMT-6d"/>
     <use x="516.699219" xlink:href="#ArialMT-61"/>
     <use x="572.314453" xlink:href="#ArialMT-67"/>
     <use x="627.929688" xlink:href="#ArialMT-6e"/>
     <use x="683.544922" xlink:href="#ArialMT-61"/>
    </g>
   </g>
   <g id="text_26">
    <!-- Toscana -->
    <g style="fill:#262626;" transform="translate(820.270111 680.375613)scale(0.12 -0.12)">
     <use xlink:href="#ArialMT-54"/>
     <use x="60.912109" xlink:href="#ArialMT-6f"/>
     <use x="116.527344" xlink:href="#ArialMT-73"/>
     <use x="166.527344" xlink:href="#ArialMT-63"/>
     <use x="216.527344" xlink:href="#ArialMT-61"/>
     <use x="272.142578" xlink:href="#ArialMT-6e"/>
     <use x="327.757812" xlink:href="#ArialMT-61"/>
    </g>
   </g>
   <g id="text_27">
    <!-- Umbria -->
    <defs>
     <path d="M 54.6875 71.578125 
L 64.15625 71.578125 
L 64.15625 30.21875 
Q 64.15625 19.4375 61.71875 13.078125 
Q 59.28125 6.734375 52.90625 2.75 
Q 46.53125 -1.21875 36.1875 -1.21875 
Q 26.125 -1.21875 19.71875 2.25 
Q 13.328125 5.71875 10.59375 12.28125 
Q 7.859375 18.84375 7.859375 30.21875 
L 7.859375 71.578125 
L 17.328125 71.578125 
L 17.328125 30.28125 
Q 17.328125 20.953125 19.0625 16.53125 
Q 20.796875 12.109375 25.015625 9.71875 
Q 29.25 7.328125 35.359375 7.328125 
Q 45.796875 7.328125 50.234375 12.0625 
Q 54.6875 16.796875 54.6875 30.28125 
z
" id="ArialMT-55"/>
    </defs>
    <g style="fill:#262626;" transform="translate(893.532634 647.696976)scale(0.12 -0.12)">
     <use xlink:href="#ArialMT-55"/>
     <use x="72.216797" xlink:href="#ArialMT-6d"/>
     <use x="155.517578" xlink:href="#ArialMT-62"/>
     <use x="211.132812" xlink:href="#ArialMT-72"/>
     <use x="244.433594" xlink:href="#ArialMT-69"/>
     <use x="266.650391" xlink:href="#ArialMT-61"/>
    </g>
   </g>
   <g id="text_28">
    <!-- Marche -->
    <defs>
     <path d="M 7.421875 0 
L 7.421875 71.578125 
L 21.6875 71.578125 
L 38.625 20.90625 
Q 40.96875 13.8125 42.046875 10.296875 
Q 43.265625 14.203125 45.84375 21.78125 
L 62.984375 71.578125 
L 75.734375 71.578125 
L 75.734375 0 
L 66.609375 0 
L 66.609375 59.90625 
L 45.796875 0 
L 37.25 0 
L 16.546875 60.9375 
L 16.546875 0 
z
" id="ArialMT-4d"/>
    </defs>
    <g style="fill:#262626;" transform="translate(783.945583 614.809511)scale(0.12 -0.12)">
     <use xlink:href="#ArialMT-4d"/>
     <use x="83.300781" xlink:href="#ArialMT-61"/>
     <use x="138.916016" xlink:href="#ArialMT-72"/>
     <use x="172.216797" xlink:href="#ArialMT-63"/>
     <use x="222.216797" xlink:href="#ArialMT-68"/>
     <use x="277.832031" xlink:href="#ArialMT-65"/>
    </g>
   </g>
   <g id="text_29">
    <!-- Lazio -->
    <g style="fill:#262626;" transform="translate(885.334333 625.570253)scale(0.12 -0.12)">
     <use xlink:href="#ArialMT-4c"/>
     <use x="55.615234" xlink:href="#ArialMT-61"/>
     <use x="111.230469" xlink:href="#ArialMT-7a"/>
     <use x="161.230469" xlink:href="#ArialMT-69"/>
     <use x="183.447266" xlink:href="#ArialMT-6f"/>
    </g>
   </g>
   <g id="text_30">
    <!-- Abruzzo -->
    <g style="fill:#262626;" transform="translate(651.027433 674.322784)scale(0.12 -0.12)">
     <use xlink:href="#ArialMT-41"/>
     <use x="66.699219" xlink:href="#ArialMT-62"/>
     <use x="122.314453" xlink:href="#ArialMT-72"/>
     <use x="155.615234" xlink:href="#ArialMT-75"/>
     <use x="211.230469" xlink:href="#ArialMT-7a"/>
     <use x="261.230469" xlink:href="#ArialMT-7a"/>
     <use x="311.230469" xlink:href="#ArialMT-6f"/>
    </g>
   </g>
   <g id="text_31">
    <!-- Molise -->
    <g style="fill:#262626;" transform="translate(913.508009 572.739624)scale(0.12 -0.12)">
     <use xlink:href="#ArialMT-4d"/>
     <use x="83.300781" xlink:href="#ArialMT-6f"/>
     <use x="138.916016" xlink:href="#ArialMT-6c"/>
     <use x="161.132812" xlink:href="#ArialMT-69"/>
     <use x="183.349609" xlink:href="#ArialMT-73"/>
     <use x="233.349609" xlink:href="#ArialMT-65"/>
    </g>
   </g>
   <g id="text_32">
    <!-- Campania -->
    <defs>
     <path d="M 58.796875 25.09375 
L 68.265625 22.703125 
Q 65.28125 11.03125 57.546875 4.90625 
Q 49.8125 -1.21875 38.625 -1.21875 
Q 27.046875 -1.21875 19.796875 3.484375 
Q 12.546875 8.203125 8.765625 17.140625 
Q 4.984375 26.078125 4.984375 36.328125 
Q 4.984375 47.515625 9.25 55.828125 
Q 13.53125 64.15625 21.40625 68.46875 
Q 29.296875 72.796875 38.765625 72.796875 
Q 49.515625 72.796875 56.828125 67.328125 
Q 64.15625 61.859375 67.046875 51.953125 
L 57.71875 49.75 
Q 55.21875 57.5625 50.484375 61.125 
Q 45.75 64.703125 38.578125 64.703125 
Q 30.328125 64.703125 24.78125 60.734375 
Q 19.234375 56.78125 16.984375 50.109375 
Q 14.75 43.453125 14.75 36.375 
Q 14.75 27.25 17.40625 20.4375 
Q 20.0625 13.625 25.671875 10.25 
Q 31.296875 6.890625 37.84375 6.890625 
Q 45.796875 6.890625 51.3125 11.46875 
Q 56.84375 16.0625 58.796875 25.09375 
" id="ArialMT-43"/>
    </defs>
    <g style="fill:#262626;" transform="translate(422.994043 444.118857)scale(0.12 -0.12)">
     <use xlink:href="#ArialMT-43"/>
     <use x="72.216797" xlink:href="#ArialMT-61"/>
     <use x="127.832031" xlink:href="#ArialMT-6d"/>
     <use x="211.132812" xlink:href="#ArialMT-70"/>
     <use x="266.748047" xlink:href="#ArialMT-61"/>
     <use x="322.363281" xlink:href="#ArialMT-6e"/>
     <use x="377.978516" xlink:href="#ArialMT-69"/>
     <use x="400.195312" xlink:href="#ArialMT-61"/>
    </g>
   </g>
   <g id="text_33">
    <!-- Puglia -->
    <g style="fill:#262626;" transform="translate(428.186023 447.861184)scale(0.12 -0.12)">
     <use xlink:href="#ArialMT-50"/>
     <use x="66.699219" xlink:href="#ArialMT-75"/>
     <use x="122.314453" xlink:href="#ArialMT-67"/>
     <use x="177.929688" xlink:href="#ArialMT-6c"/>
     <use x="200.146484" xlink:href="#ArialMT-69"/>
     <use x="222.363281" xlink:href="#ArialMT-61"/>
    </g>
   </g>
   <g id="text_34">
    <!-- Basilicata -->
    <g style="fill:#262626;" transform="translate(576.991907 571.681542)scale(0.12 -0.12)">
     <use xlink:href="#ArialMT-42"/>
     <use x="66.699219" xlink:href="#ArialMT-61"/>
     <use x="122.314453" xlink:href="#ArialMT-73"/>
     <use x="172.314453" xlink:href="#ArialMT-69"/>
     <use x="194.53125" xlink:href="#ArialMT-6c"/>
     <use x="216.748047" xlink:href="#ArialMT-69"/>
     <use x="238.964844" xlink:href="#ArialMT-63"/>
     <use x="288.964844" xlink:href="#ArialMT-61"/>
     <use x="344.580078" xlink:href="#ArialMT-74"/>
     <use x="372.363281" xlink:href="#ArialMT-61"/>
    </g>
   </g>
   <g id="text_35">
    <!-- Calabria -->
    <g style="fill:#262626;" transform="translate(626.046362 397.94233)scale(0.12 -0.12)">
     <use xlink:href="#ArialMT-43"/>
     <use x="72.216797" xlink:href="#ArialMT-61"/>
     <use x="127.832031" xlink:href="#ArialMT-6c"/>
     <use x="150.048828" xlink:href="#ArialMT-61"/>
     <use x="205.664062" xlink:href="#ArialMT-62"/>
     <use x="261.279297" xlink:href="#ArialMT-72"/>
     <use x="294.580078" xlink:href="#ArialMT-69"/>
     <use x="316.796875" xlink:href="#ArialMT-61"/>
    </g>
   </g>
   <g id="text_36">
    <!-- Sicilia -->
    <g style="fill:#262626;" transform="translate(413.630104 468.867068)scale(0.12 -0.12)">
     <use xlink:href="#ArialMT-53"/>
     <use x="66.699219" xlink:href="#ArialMT-69"/>
     <use x="88.916016" xlink:href="#ArialMT-63"/>
     <use x="138.916016" xlink:href="#ArialMT-69"/>
     <use x="161.132812" xlink:href="#ArialMT-6c"/>
     <use x="183.349609" xlink:href="#ArialMT-69"/>
     <use x="205.566406" xlink:href="#ArialMT-61"/>
    </g>
   </g>
   <g id="text_37">
    <!-- Sardegna -->
    <g style="fill:#262626;" transform="translate(429.295178 655.503113)scale(0.12 -0.12)">
     <use xlink:href="#ArialMT-53"/>
     <use x="66.699219" xlink:href="#ArialMT-61"/>
     <use x="122.314453" xlink:href="#ArialMT-72"/>
     <use x="155.615234" xlink:href="#ArialMT-64"/>
     <use x="211.230469" xlink:href="#ArialMT-65"/>
     <use x="266.845703" xlink:href="#ArialMT-67"/>
     <use x="322.460938" xlink:href="#ArialMT-6e"/>
     <use x="378.076172" xlink:href="#ArialMT-61"/>
    </g>
   </g>
   <g id="text_38">
    <!-- Nord -->
    <defs>
     <path d="M 7.625 0 
L 7.625 71.578125 
L 17.328125 71.578125 
L 54.9375 15.375 
L 54.9375 71.578125 
L 64.015625 71.578125 
L 64.015625 0 
L 54.296875 0 
L 16.703125 56.25 
L 16.703125 0 
z
" id="ArialMT-4e"/>
    </defs>
    <g style="fill:#262626;" transform="translate(745.968165 723.615235)scale(0.12 -0.12)">
     <use xlink:href="#ArialMT-4e"/>
     <use x="72.216797" xlink:href="#ArialMT-6f"/>
     <use x="127.832031" xlink:href="#ArialMT-72"/>
     <use x="161.132812" xlink:href="#ArialMT-64"/>
    </g>
   </g>
   <g id="text_39">
    <!-- Centro  -->
    <g style="fill:#262626;" transform="translate(854.145689 643.050604)scale(0.12 -0.12)">
     <use xlink:href="#ArialMT-43"/>
     <use x="72.216797" xlink:href="#ArialMT-65"/>
     <use x="127.832031" xlink:href="#ArialMT-6e"/>
     <use x="183.447266" xlink:href="#ArialMT-74"/>
     <use x="211.230469" xlink:href="#ArialMT-72"/>
     <use x="244.53125" xlink:href="#ArialMT-6f"/>
     <use x="300.146484" xlink:href="#ArialMT-20"/>
    </g>
   </g>
   <g id="text_40">
    <!-- Mezzogiorno -->
    <g style="fill:#262626;" transform="translate(467.432939 490.788519)scale(0.12 -0.12)">
     <use xlink:href="#ArialMT-4d"/>
     <use x="83.300781" xlink:href="#ArialMT-65"/>
     <use x="138.916016" xlink:href="#ArialMT-7a"/>
     <use x="188.916016" xlink:href="#ArialMT-7a"/>
     <use x="238.916016" xlink:href="#ArialMT-6f"/>
     <use x="294.53125" xlink:href="#ArialMT-67"/>
     <use x="350.146484" xlink:href="#ArialMT-69"/>
     <use x="372.363281" xlink:href="#ArialMT-6f"/>
     <use x="427.978516" xlink:href="#ArialMT-72"/>
     <use x="461.279297" xlink:href="#ArialMT-6e"/>
     <use x="516.894531" xlink:href="#ArialMT-6f"/>
    </g>
   </g>
   <g id="text_41">
    <!-- Italia -->
    <g style="fill:#262626;" transform="translate(665.336088 646.016926)scale(0.12 -0.12)">
     <use xlink:href="#ArialMT-49"/>
     <use x="27.783203" xlink:href="#ArialMT-74"/>
     <use x="55.566406" xlink:href="#ArialMT-61"/>
     <use x="111.181641" xlink:href="#ArialMT-6c"/>
     <use x="133.398438" xlink:href="#ArialMT-69"/>
     <use x="155.615234" xlink:href="#ArialMT-61"/>
    </g>
   </g>
   <g id="legend_1">
    <g id="line2d_28"/>
    <g id="line2d_29"/>
    <g id="text_42">
     <!-- pearsonr = -0.58; p = 0.0019 -->
     <defs>
      <path d="M 52.828125 42.09375 
L 5.5625 42.09375 
L 5.5625 50.296875 
L 52.828125 50.296875 
z
M 52.828125 20.359375 
L 5.5625 20.359375 
L 5.5625 28.5625 
L 52.828125 28.5625 
z
" id="ArialMT-3d"/>
      <path d="M 9.078125 0 
L 9.078125 10.015625 
L 19.09375 10.015625 
L 19.09375 0 
z
" id="ArialMT-2e"/>
      <path d="M 17.671875 38.8125 
Q 12.203125 40.828125 9.5625 44.53125 
Q 6.9375 48.25 6.9375 53.421875 
Q 6.9375 61.234375 12.546875 66.546875 
Q 18.171875 71.875 27.484375 71.875 
Q 36.859375 71.875 42.578125 66.421875 
Q 48.296875 60.984375 48.296875 53.171875 
Q 48.296875 48.1875 45.671875 44.5 
Q 43.0625 40.828125 37.75 38.8125 
Q 44.34375 36.671875 47.78125 31.875 
Q 51.21875 27.09375 51.21875 20.453125 
Q 51.21875 11.28125 44.71875 5.03125 
Q 38.234375 -1.21875 27.640625 -1.21875 
Q 17.046875 -1.21875 10.546875 5.046875 
Q 4.046875 11.328125 4.046875 20.703125 
Q 4.046875 27.6875 7.59375 32.390625 
Q 11.140625 37.109375 17.671875 38.8125 
M 15.921875 53.71875 
Q 15.921875 48.640625 19.1875 45.40625 
Q 22.46875 42.1875 27.6875 42.1875 
Q 32.765625 42.1875 36.015625 45.375 
Q 39.265625 48.578125 39.265625 53.21875 
Q 39.265625 58.0625 35.90625 61.359375 
Q 32.5625 64.65625 27.59375 64.65625 
Q 22.5625 64.65625 19.234375 61.421875 
Q 15.921875 58.203125 15.921875 53.71875 
M 13.09375 20.65625 
Q 13.09375 16.890625 14.875 13.375 
Q 16.65625 9.859375 20.171875 7.921875 
Q 23.6875 6 27.734375 6 
Q 34.03125 6 38.125 10.046875 
Q 42.234375 14.109375 42.234375 20.359375 
Q 42.234375 26.703125 38.015625 30.859375 
Q 33.796875 35.015625 27.4375 35.015625 
Q 21.234375 35.015625 17.15625 30.90625 
Q 13.09375 26.8125 13.09375 20.65625 
" id="ArialMT-38"/>
      <path d="M 8.890625 41.84375 
L 8.890625 51.859375 
L 18.890625 51.859375 
L 18.890625 41.84375 
z
M 8.890625 0 
L 8.890625 10.015625 
L 18.890625 10.015625 
L 18.890625 0 
Q 18.890625 -5.515625 16.9375 -8.90625 
Q 14.984375 -12.3125 10.75 -14.15625 
L 8.296875 -10.40625 
Q 11.078125 -9.1875 12.390625 -6.8125 
Q 13.71875 -4.4375 13.875 0 
z
" id="ArialMT-3b"/>
      <path d="M 5.46875 16.546875 
L 13.921875 17.328125 
Q 14.984375 11.375 18.015625 8.6875 
Q 21.046875 6 25.78125 6 
Q 29.828125 6 32.875 7.859375 
Q 35.9375 9.71875 37.890625 12.8125 
Q 39.84375 15.921875 41.15625 21.1875 
Q 42.484375 26.46875 42.484375 31.9375 
Q 42.484375 32.515625 42.4375 33.6875 
Q 39.796875 29.5 35.234375 26.875 
Q 30.671875 24.265625 25.34375 24.265625 
Q 16.453125 24.265625 10.296875 30.703125 
Q 4.15625 37.15625 4.15625 47.703125 
Q 4.15625 58.59375 10.578125 65.234375 
Q 17 71.875 26.65625 71.875 
Q 33.640625 71.875 39.421875 68.109375 
Q 45.21875 64.359375 48.21875 57.390625 
Q 51.21875 50.4375 51.21875 37.25 
Q 51.21875 23.53125 48.234375 15.40625 
Q 45.265625 7.28125 39.375 3.03125 
Q 33.5 -1.21875 25.59375 -1.21875 
Q 17.1875 -1.21875 11.859375 3.4375 
Q 6.546875 8.109375 5.46875 16.546875 
M 41.453125 48.140625 
Q 41.453125 55.71875 37.421875 60.15625 
Q 33.40625 64.59375 27.734375 64.59375 
Q 21.875 64.59375 17.53125 59.8125 
Q 13.1875 55.03125 13.1875 47.40625 
Q 13.1875 40.578125 17.3125 36.296875 
Q 21.4375 32.03125 27.484375 32.03125 
Q 33.59375 32.03125 37.515625 36.296875 
Q 41.453125 40.578125 41.453125 48.140625 
" id="ArialMT-39"/>
     </defs>
     <g style="fill:#262626;" transform="translate(1050.227175 208.542526)scale(0.1 -0.1)">
      <use xlink:href="#ArialMT-70"/>
      <use x="55.615234" xlink:href="#ArialMT-65"/>
      <use x="111.230469" xlink:href="#ArialMT-61"/>
      <use x="166.845703" xlink:href="#ArialMT-72"/>
      <use x="200.146484" xlink:href="#ArialMT-73"/>
      <use x="250.146484" xlink:href="#ArialMT-6f"/>
      <use x="305.761719" xlink:href="#ArialMT-6e"/>
      <use x="361.376953" xlink:href="#ArialMT-72"/>
      <use x="394.677734" xlink:href="#ArialMT-20"/>
      <use x="422.460938" xlink:href="#ArialMT-3d"/>
      <use x="480.859375" xlink:href="#ArialMT-20"/>
      <use x="508.642578" xlink:href="#ArialMT-2d"/>
      <use x="541.943359" xlink:href="#ArialMT-30"/>
      <use x="597.558594" xlink:href="#ArialMT-2e"/>
      <use x="625.341797" xlink:href="#ArialMT-35"/>
      <use x="680.957031" xlink:href="#ArialMT-38"/>
      <use x="736.572266" xlink:href="#ArialMT-3b"/>
      <use x="764.355469" xlink:href="#ArialMT-20"/>
      <use x="792.138672" xlink:href="#ArialMT-70"/>
      <use x="847.753906" xlink:href="#ArialMT-20"/>
      <use x="875.537109" xlink:href="#ArialMT-3d"/>
      <use x="933.935547" xlink:href="#ArialMT-20"/>
      <use x="961.71875" xlink:href="#ArialMT-30"/>
      <use x="1017.333984" xlink:href="#ArialMT-2e"/>
      <use x="1045.117188" xlink:href="#ArialMT-30"/>
      <use x="1100.732422" xlink:href="#ArialMT-30"/>
      <use x="1156.347656" xlink:href="#ArialMT-31"/>
      <use x="1211.962891" xlink:href="#ArialMT-39"/>
     </g>
    </g>
   </g>
  </g>
  <g id="axes_2">
   <g id="patch_5">
    <path d="M 137.1625 164.924426 
L 1185.975612 164.924426 
L 1185.975612 27.771429 
L 137.1625 27.771429 
z
" style="fill:#eaeaf2;"/>
   </g>
   <g id="matplotlib.axis_3">
    <g id="xtick_7">
     <g id="line2d_30">
      <path clip-path="url(#p43411efe09)" d="M 299.638424 164.924426 
L 299.638424 27.771429 
" style="fill:none;stroke:#ffffff;stroke-linecap:round;"/>
     </g>
     <g id="line2d_31"/>
    </g>
    <g id="xtick_8">
     <g id="line2d_32">
      <path clip-path="url(#p43411efe09)" d="M 475.376815 164.924426 
L 475.376815 27.771429 
" style="fill:none;stroke:#ffffff;stroke-linecap:round;"/>
     </g>
     <g id="line2d_33"/>
    </g>
    <g id="xtick_9">
     <g id="line2d_34">
      <path clip-path="url(#p43411efe09)" d="M 651.115205 164.924426 
L 651.115205 27.771429 
" style="fill:none;stroke:#ffffff;stroke-linecap:round;"/>
     </g>
     <g id="line2d_35"/>
    </g>
    <g id="xtick_10">
     <g id="line2d_36">
      <path clip-path="url(#p43411efe09)" d="M 826.853596 164.924426 
L 826.853596 27.771429 
" style="fill:none;stroke:#ffffff;stroke-linecap:round;"/>
     </g>
     <g id="line2d_37"/>
    </g>
    <g id="xtick_11">
     <g id="line2d_38">
      <path clip-path="url(#p43411efe09)" d="M 1002.591986 164.924426 
L 1002.591986 27.771429 
" style="fill:none;stroke:#ffffff;stroke-linecap:round;"/>
     </g>
     <g id="line2d_39"/>
    </g>
    <g id="xtick_12">
     <g id="line2d_40">
      <path clip-path="url(#p43411efe09)" d="M 1178.330377 164.924426 
L 1178.330377 27.771429 
" style="fill:none;stroke:#ffffff;stroke-linecap:round;"/>
     </g>
     <g id="line2d_41"/>
    </g>
   </g>
   <g id="matplotlib.axis_4">
    <g id="ytick_8"/>
    <g id="ytick_9"/>
    <g id="ytick_10"/>
    <g id="ytick_11"/>
    <g id="ytick_12"/>
    <g id="ytick_13"/>
   </g>
   <g id="patch_6">
    <path clip-path="url(#p43411efe09)" d="M 411.630104 164.924426 
L 511.605685 164.924426 
L 511.605685 83.285737 
L 411.630104 83.285737 
z
" style="fill:#c44e52;opacity:0.4;"/>
   </g>
   <g id="patch_7">
    <path clip-path="url(#p43411efe09)" d="M 511.605685 164.924426 
L 611.581266 164.924426 
L 611.581266 148.596688 
L 511.605685 148.596688 
z
" style="fill:#c44e52;opacity:0.4;"/>
   </g>
   <g id="patch_8">
    <path clip-path="url(#p43411efe09)" d="M 611.581266 164.924426 
L 711.556847 164.924426 
L 711.556847 34.302524 
L 611.581266 34.302524 
z
" style="fill:#c44e52;opacity:0.4;"/>
   </g>
   <g id="patch_9">
    <path clip-path="url(#p43411efe09)" d="M 711.556847 164.924426 
L 811.532428 164.924426 
L 811.532428 66.957999 
L 711.556847 66.957999 
z
" style="fill:#c44e52;opacity:0.4;"/>
   </g>
   <g id="patch_10">
    <path clip-path="url(#p43411efe09)" d="M 811.532428 164.924426 
L 911.508009 164.924426 
L 911.508009 66.957999 
L 811.532428 66.957999 
z
" style="fill:#c44e52;opacity:0.4;"/>
   </g>
   <g id="line2d_42">
    <path clip-path="url(#p43411efe09)" d="M 184.835823 164.469476 
L 199.851043 164.311512 
L 214.866263 163.961293 
L 229.881483 163.359565 
L 244.896703 162.421544 
L 252.404313 161.794762 
L 259.911923 161.044742 
L 267.419533 160.158121 
L 274.927143 159.122473 
L 282.434753 157.927062 
L 289.942363 156.563673 
L 297.449973 155.027454 
L 304.957583 153.317747 
L 312.465193 151.438851 
L 319.972803 149.400642 
L 327.480413 147.219014 
L 342.495633 142.519976 
L 372.526072 132.746295 
L 380.033682 130.469776 
L 387.541292 128.348368 
L 395.048902 126.422301 
L 402.556512 124.726354 
L 410.064122 123.287984 
L 417.571732 122.125694 
L 425.079342 121.24776 
L 432.586952 120.651385 
L 440.094562 120.322366 
L 447.602172 120.235289 
L 455.109782 120.354262 
L 470.125002 121.022302 
L 492.647832 122.24103 
L 500.155442 122.460837 
L 507.663052 122.490614 
L 515.170662 122.280349 
L 522.678272 121.788162 
L 530.185882 120.981809 
L 537.693492 119.839768 
L 545.201102 118.351875 
L 552.708712 116.519518 
L 560.216322 114.355382 
L 567.723932 111.882794 
L 575.231542 109.134703 
L 582.739151 106.15235 
L 590.246761 102.983694 
L 605.261981 96.302255 
L 620.277201 89.539627 
L 627.784811 86.267115 
L 635.292421 83.135318 
L 642.800031 80.188973 
L 650.307641 77.466311 
L 657.815251 74.99825 
L 665.322861 72.80791 
L 672.830471 70.910466 
L 680.338081 69.313318 
L 687.845691 68.016576 
L 695.353301 67.013802 
L 702.860911 66.29298 
L 710.368521 65.83764 
L 717.876131 65.628093 
L 725.383741 65.642684 
L 732.891351 65.859039 
L 740.398961 66.255212 
L 747.906571 66.81072 
L 755.414181 67.507401 
L 762.921791 68.330094 
L 777.937011 70.310524 
L 792.952231 72.703726 
L 807.96745 75.519263 
L 815.47506 77.101576 
L 822.98267 78.813058 
L 830.49028 80.664631 
L 837.99789 82.667252 
L 845.5055 84.831024 
L 853.01311 87.164292 
L 860.52072 89.672791 
L 868.02833 92.358852 
L 875.53594 95.220741 
L 883.04355 98.252151 
L 890.55116 101.441891 
L 905.56638 108.226931 
L 920.5816 115.39156 
L 943.10443 126.309564 
L 958.11965 133.304255 
L 965.62726 136.618778 
L 973.13487 139.774322 
L 980.64248 142.748147 
L 988.15009 145.522253 
L 995.6577 148.083677 
L 1003.16531 150.424561 
L 1010.67292 152.542 
L 1018.18053 154.437698 
L 1025.688139 156.117469 
L 1033.195749 157.590618 
L 1040.703359 158.869256 
L 1048.210969 159.96758 
L 1055.718579 160.901162 
L 1063.226189 161.686277 
L 1070.733799 162.339295 
L 1085.749019 163.311917 
L 1100.764239 163.93403 
L 1115.779459 164.297379 
L 1130.794679 164.465093 
L 1138.302289 164.486906 
L 1138.302289 164.486906 
" style="fill:none;stroke:#c44e52;stroke-linecap:round;stroke-width:1.75;"/>
   </g>
   <g id="patch_11">
    <path d="M 137.1625 164.924426 
L 1185.975612 164.924426 
" style="fill:none;"/>
   </g>
  </g>
  <g id="axes_3">
   <g id="patch_12">
    <path d="M 1222.141582 987.842411 
L 1402.971429 987.842411 
L 1402.971429 192.355026 
L 1222.141582 192.355026 
z
" style="fill:#eaeaf2;"/>
   </g>
   <g id="matplotlib.axis_5">
    <g id="xtick_13"/>
    <g id="xtick_14"/>
    <g id="xtick_15"/>
    <g id="xtick_16"/>
    <g id="xtick_17"/>
    <g id="xtick_18"/>
   </g>
   <g id="matplotlib.axis_6">
    <g id="ytick_14">
     <g id="line2d_43">
      <path clip-path="url(#pca0c2da2ff)" d="M 1222.141582 893.076729 
L 1402.971429 893.076729 
" style="fill:none;stroke:#ffffff;stroke-linecap:round;"/>
     </g>
     <g id="line2d_44"/>
    </g>
    <g id="ytick_15">
     <g id="line2d_45">
      <path clip-path="url(#pca0c2da2ff)" d="M 1222.141582 776.87844 
L 1402.971429 776.87844 
" style="fill:none;stroke:#ffffff;stroke-linecap:round;"/>
     </g>
     <g id="line2d_46"/>
    </g>
    <g id="ytick_16">
     <g id="line2d_47">
      <path clip-path="url(#pca0c2da2ff)" d="M 1222.141582 660.68015 
L 1402.971429 660.68015 
" style="fill:none;stroke:#ffffff;stroke-linecap:round;"/>
     </g>
     <g id="line2d_48"/>
    </g>
    <g id="ytick_17">
     <g id="line2d_49">
      <path clip-path="url(#pca0c2da2ff)" d="M 1222.141582 544.48186 
L 1402.971429 544.48186 
" style="fill:none;stroke:#ffffff;stroke-linecap:round;"/>
     </g>
     <g id="line2d_50"/>
    </g>
    <g id="ytick_18">
     <g id="line2d_51">
      <path clip-path="url(#pca0c2da2ff)" d="M 1222.141582 428.283571 
L 1402.971429 428.283571 
" style="fill:none;stroke:#ffffff;stroke-linecap:round;"/>
     </g>
     <g id="line2d_52"/>
    </g>
    <g id="ytick_19">
     <g id="line2d_53">
      <path clip-path="url(#pca0c2da2ff)" d="M 1222.141582 312.085281 
L 1402.971429 312.085281 
" style="fill:none;stroke:#ffffff;stroke-linecap:round;"/>
     </g>
     <g id="line2d_54"/>
    </g>
    <g id="ytick_20">
     <g id="line2d_55">
      <path clip-path="url(#pca0c2da2ff)" d="M 1222.141582 195.886992 
L 1402.971429 195.886992 
" style="fill:none;stroke:#ffffff;stroke-linecap:round;"/>
     </g>
     <g id="line2d_56"/>
    </g>
   </g>
   <g id="patch_13">
    <path clip-path="url(#pca0c2da2ff)" d="M 1222.141582 759.532941 
L 1394.360483 759.532941 
L 1394.360483 669.635288 
L 1222.141582 669.635288 
z
" style="fill:#c44e52;opacity:0.4;"/>
   </g>
   <g id="patch_14">
    <path clip-path="url(#pca0c2da2ff)" d="M 1222.141582 669.635288 
L 1301.627229 669.635288 
L 1301.627229 579.737636 
L 1222.141582 579.737636 
z
" style="fill:#c44e52;opacity:0.4;"/>
   </g>
   <g id="patch_15">
    <path clip-path="url(#pca0c2da2ff)" d="M 1222.141582 579.737636 
L 1261.884405 579.737636 
L 1261.884405 489.839983 
L 1222.141582 489.839983 
z
" style="fill:#c44e52;opacity:0.4;"/>
   </g>
   <g id="patch_16">
    <path clip-path="url(#pca0c2da2ff)" d="M 1222.141582 489.839983 
L 1275.132013 489.839983 
L 1275.132013 399.94233 
L 1222.141582 399.94233 
z
" style="fill:#c44e52;opacity:0.4;"/>
   </g>
   <g id="line2d_57">
    <path clip-path="url(#pca0c2da2ff)" d="M 1222.50805 930.961728 
L 1222.708522 919.899552 
L 1223.093659 908.837376 
L 1223.748644 897.7752 
L 1224.213817 892.244112 
L 1224.794971 886.713023 
L 1225.513157 881.181935 
L 1226.391554 875.650847 
L 1227.45516 870.119759 
L 1228.730341 864.588671 
L 1230.244222 859.057583 
L 1232.023922 853.526495 
L 1234.09564 847.995407 
L 1236.4836 842.464319 
L 1239.208903 836.933231 
L 1242.288308 831.402143 
L 1245.733012 825.871055 
L 1249.547481 820.339967 
L 1253.728401 814.808879 
L 1258.263823 809.27779 
L 1263.132562 803.746702 
L 1268.303912 798.215614 
L 1273.737721 792.684526 
L 1285.187998 781.62235 
L 1308.606573 759.497998 
L 1314.146717 753.96691 
L 1319.414826 748.435822 
L 1324.343476 742.904734 
L 1328.871399 737.373646 
L 1332.944923 731.842557 
L 1336.519079 726.311469 
L 1339.558333 720.780381 
L 1342.036952 715.249293 
L 1343.939002 709.718205 
L 1345.258043 704.187117 
L 1345.996541 698.656029 
L 1346.165101 693.124941 
L 1345.78155 687.593853 
L 1344.869973 682.062765 
L 1343.459731 676.531677 
L 1341.584526 671.000589 
L 1339.281544 665.469501 
L 1336.590697 659.938413 
L 1333.553955 654.407324 
L 1330.214798 648.876236 
L 1326.61773 643.345148 
L 1322.807878 637.81406 
L 1314.731276 626.751884 
L 1293.941484 599.096444 
L 1290.014263 593.565356 
L 1286.251092 588.034268 
L 1282.683858 582.50318 
L 1279.340947 576.972091 
L 1276.246822 571.441003 
L 1273.4216 565.909915 
L 1270.880668 560.378827 
L 1268.634324 554.847739 
L 1266.687482 549.316651 
L 1265.039457 543.785563 
L 1263.683848 538.254475 
L 1262.608538 532.723387 
L 1261.795842 527.192299 
L 1261.222811 521.661211 
L 1260.861703 516.130123 
L 1260.680616 510.599035 
L 1260.715032 499.536858 
L 1261.322141 471.881418 
L 1261.245014 466.35033 
L 1261.034305 460.819242 
L 1260.670771 455.288154 
L 1260.140906 449.757066 
L 1259.437101 444.225978 
L 1258.557572 438.69489 
L 1257.50609 433.163802 
L 1256.291522 427.632714 
L 1254.927222 422.101626 
L 1251.820844 411.039449 
L 1248.354316 399.977273 
L 1239.33183 372.321833 
L 1236.014102 361.259657 
L 1233.041251 350.197481 
L 1230.475324 339.135304 
L 1228.338787 328.073128 
L 1226.621059 317.010952 
L 1225.287147 305.948776 
L 1224.286873 294.8866 
L 1223.563539 283.824424 
L 1223.061268 272.762248 
L 1222.61737 256.168983 
L 1222.445425 239.575719 
L 1222.459402 228.513543 
L 1222.459402 228.513543 
" style="fill:none;stroke:#c44e52;stroke-linecap:round;stroke-width:1.75;"/>
   </g>
   <g id="patch_17">
    <path d="M 1222.141582 987.842411 
L 1222.141582 192.355026 
" style="fill:none;"/>
   </g>
  </g>
 </g>
 <defs>
  <clipPath id="p0d8ab68773">
   <rect height="795.487385" width="1048.813112" x="137.1625" y="192.355026"/>
  </clipPath>
  <clipPath id="p43411efe09">
   <rect height="137.152997" width="1048.813112" x="137.1625" y="27.771429"/>
  </clipPath>
  <clipPath id="pca0c2da2ff">
   <rect height="795.487385" width="180.829847" x="1222.141582" y="192.355026"/>
  </clipPath>
 </defs>
</svg>
